<?xml version="1.0" standalone="no"?>
<!DOCTYPE svg PUBLIC "-//W3C//DTD SVG 20010904//EN"
 "http://www.w3.org/TR/2001/REC-SVG-20010904/DTD/svg10.dtd">
<svg version="1.0" xmlns="http://www.w3.org/2000/svg"
 width="650.000000pt" height="432.000000pt" viewBox="0 0 650.000000 432.000000"
 preserveAspectRatio="xMidYMid meet">

<g transform="translate(0.000000,432.000000) scale(0.100000,-0.100000)"
fill="#000000" stroke="none">
<path d="M5321 4297 c-13 -15 -19 -30 -15 -40 4 -11 1 -17 -7 -17 -8 -1 0 -12
16 -25 35 -29 114 -35 135 -10 9 11 10 15 1 15 -8 0 -10 8 -6 20 8 26 -43 80
-77 80 -13 0 -34 -11 -47 -23z"/>
<path d="M5 3545 c0 -247 1 -347 2 -222 2 126 2 328 0 450 -1 122 -2 20 -2
-228z"/>
<path d="M1726 3924 c-3 -9 -6 -27 -6 -41 0 -39 25 -22 28 20 3 37 -11 50 -22
21z"/>
<path d="M1661 3877 c-23 -48 -25 -57 -12 -57 11 0 46 88 39 96 -3 3 -15 -15
-27 -39z"/>
<path d="M1383 3820 c3 -12 0 -20 -8 -20 -21 0 -48 -98 -40 -149 8 -57 63
-174 111 -237 39 -50 70 -114 56 -114 -18 0 -161 159 -212 235 -65 99 -78 111
-96 87 -7 -9 -14 -23 -14 -31 0 -8 -8 -23 -17 -33 -12 -13 -17 -36 -17 -72 0
-60 36 -131 107 -208 54 -59 100 -128 86 -128 -17 0 -165 76 -196 100 -14 11
-39 20 -55 20 -35 0 -52 -33 -52 -103 0 -44 4 -52 54 -102 30 -30 61 -56 70
-57 8 -1 -23 -4 -70 -7 -98 -7 -100 -10 -81 -97 11 -48 14 -52 54 -64 23 -7
47 -13 52 -15 6 -1 -14 -13 -43 -26 -58 -26 -69 -46 -58 -104 5 -23 19 -44 41
-62 l33 -27 -19 -24 c-10 -14 -19 -35 -19 -47 0 -27 36 -75 56 -75 18 0 18
-14 0 -29 -24 -20 -26 -50 -4 -65 16 -12 18 -18 9 -34 -13 -25 2 -38 37 -33
25 3 27 -6 7 -33 -18 -24 -3 -56 25 -56 15 0 20 -7 20 -25 0 -14 4 -25 9 -25
5 0 9 -6 8 -12 -2 -50 2 -53 34 -22 24 22 29 24 21 8 -6 -11 -18 -26 -26 -34
-23 -18 -20 -50 3 -50 11 0 23 4 26 10 3 6 14 10 25 10 10 0 21 7 24 16 3 8
10 13 15 10 5 -3 -5 -33 -21 -66 -29 -56 -30 -62 -14 -78 9 -10 16 -28 16 -40
0 -11 5 -24 10 -27 6 -3 10 -17 10 -31 0 -36 24 -30 63 16 19 22 36 40 39 40
15 0 16 -34 3 -60 -21 -41 -19 -76 6 -94 12 -8 18 -19 15 -25 -4 -6 2 -18 14
-28 11 -10 20 -21 20 -26 0 -5 6 -15 14 -22 10 -11 16 -11 25 -2 9 9 14 8 22
-3 8 -12 17 -7 50 30 22 25 36 36 31 25 -6 -11 -20 -29 -32 -40 -12 -11 -26
-29 -30 -39 -6 -17 -19 -20 -91 -23 -82 -4 -125 -19 -97 -33 7 -4 38 -13 68
-19 30 -7 65 -17 77 -23 12 -6 35 -9 52 -6 16 2 28 1 25 -3 -7 -12 133 -15
186 -5 25 4 118 9 207 10 141 1 160 3 150 16 -10 12 -8 12 13 -1 18 -11 34
-13 60 -7 59 13 90 16 90 7 0 -5 9 -9 19 -9 11 0 21 -4 23 -10 4 -13 48 -1 48
14 0 20 -14 32 -55 49 -36 15 -38 17 -17 23 15 4 22 14 22 30 0 13 9 33 20 44
11 11 20 24 20 28 0 4 16 8 36 9 20 1 54 9 75 19 59 26 52 41 -22 45 l-44 3
-2 45 c-1 24 3 51 9 58 6 8 12 51 13 96 2 45 8 94 15 109 14 30 60 45 60 19 1
-23 40 -69 47 -53 8 21 23 13 23 -13 0 -14 -4 -25 -10 -25 -11 0 -14 -69 -4
-95 4 -9 24 -25 45 -36 44 -22 46 -26 22 -67 -15 -26 -16 -36 -5 -64 6 -19 12
-42 12 -51 0 -21 31 -38 57 -31 15 4 19 12 15 30 -2 13 -10 24 -18 24 -7 0
-12 9 -11 20 1 11 6 19 12 16 7 -2 9 8 7 29 -3 22 1 34 11 38 17 6 44 -19 33
-30 -4 -4 -11 -1 -15 6 -6 8 -11 9 -15 3 -7 -12 11 -26 33 -27 14 0 77 -76 87
-106 6 -17 68 -53 94 -54 8 0 18 4 22 10 5 7 14 6 28 -3 22 -13 27 -3 8 16 -9
9 -8 12 6 12 15 0 16 3 7 14 -9 11 -9 16 1 23 7 4 14 16 14 25 1 10 -2 16 -6
13 -4 -3 -14 3 -21 12 -12 15 -12 16 4 10 10 -4 16 -3 13 1 -8 13 32 42 57 41
21 -1 21 -1 -3 -9 -25 -8 -25 -8 -2 -9 13 -1 30 5 38 13 7 8 19 16 26 18 17 6
-9 33 -42 43 -14 4 -28 13 -32 19 -6 8 -11 7 -17 -4 -6 -9 -6 -19 1 -27 8 -10
6 -13 -5 -13 -9 0 -14 -6 -12 -13 4 -9 -7 -11 -40 -9 -25 2 -45 8 -45 12 0 5
-8 10 -17 12 -10 2 -18 12 -18 23 0 12 -8 21 -20 23 -17 4 -18 2 -6 -11 7 -9
10 -21 6 -27 -3 -5 1 -10 9 -10 9 0 16 -4 16 -10 0 -13 -7 -12 -55 4 -22 8
-41 21 -43 30 -4 20 7 20 36 0 12 -8 22 -11 22 -5 0 5 -10 17 -22 26 -19 13
-20 17 -9 24 8 6 24 5 38 0 32 -12 42 -11 21 2 -10 5 -18 17 -18 24 0 8 -4 15
-9 15 -5 0 -11 6 -14 13 -4 10 3 12 24 9 25 -4 28 -2 22 14 -4 11 -14 25 -22
32 -14 10 -13 11 4 5 11 -3 26 -10 33 -16 8 -6 12 -6 12 1 0 6 -17 16 -37 23
-49 15 -63 27 -63 51 0 15 -5 18 -22 14 -13 -3 -17 -3 -10 0 10 5 10 9 1 20
-17 20 10 19 40 -3 14 -9 21 -11 17 -5 -4 7 -21 19 -38 28 -40 21 -81 62 -73
73 3 5 1 12 -5 16 -5 3 -10 10 -10 16 0 16 18 10 40 -13 34 -37 22 -8 -16 38
-19 24 -41 44 -48 44 -17 0 -36 43 -35 78 l0 27 10 -24 c5 -13 12 -22 14 -19
3 3 1 17 -5 32 -13 36 -13 70 1 41 8 -16 8 -15 4 8 -6 30 10 61 26 51 11 -6
11 16 3 79 -6 42 -8 45 -27 34 -15 -9 -21 -9 -24 0 -3 8 -14 11 -26 8 -12 -3
-27 -2 -33 2 -16 11 -28 53 -14 53 6 0 15 11 20 25 12 31 34 34 25 3 -6 -22
-6 -22 9 -4 9 11 16 27 16 37 0 9 7 23 16 30 15 12 16 10 10 -21 l-7 -35 16
28 c19 33 33 30 15 -3 -6 -12 -9 -29 -5 -38 9 -25 20 -1 35 80 7 37 16 66 20
63 5 -3 22 14 39 37 37 51 190 208 202 208 5 0 9 -5 9 -11 0 -5 5 -7 11 -3 8
5 6 10 -5 16 -25 14 -19 42 14 61 33 20 39 36 13 33 -10 0 -19 8 -21 19 -4 16
-2 17 11 7 23 -19 32 4 13 33 -13 20 -23 23 -79 24 -63 0 -66 -1 -133 -53 -38
-29 -85 -61 -104 -71 -19 -10 -41 -26 -48 -36 -7 -11 -20 -19 -28 -19 -15 0
-17 -7 -14 -60 2 -40 19 -76 67 -144 25 -35 33 -55 29 -72 -7 -28 -33 -32 -51
-8 -16 22 -52 3 -61 -31 -3 -14 -10 -23 -14 -20 -4 3 -10 -8 -13 -24 -4 -16
-17 -40 -31 -54 -14 -14 -22 -28 -18 -33 4 -4 1 -4 -6 0 -6 4 -19 20 -27 36
-17 33 -55 48 -143 54 -43 3 -60 1 -56 -6 4 -7 2 -8 -5 -4 -6 4 -9 11 -7 14 2
4 -18 34 -45 67 -28 33 -64 88 -80 123 -25 52 -33 61 -45 51 -12 -10 -14 -5
-14 30 0 60 -41 143 -87 177 -21 16 -61 50 -90 76 -28 26 -58 48 -66 48 -8 0
-19 16 -25 38 -6 20 -22 76 -36 125 -13 48 -34 140 -46 205 -12 64 -25 126
-29 137 -7 18 -9 16 -15 -12 -9 -39 -18 -41 -36 -8 -13 25 -40 35 -40 15 0 -5
-8 -18 -19 -29 -17 -17 -18 -27 -10 -107 5 -49 21 -136 35 -193 25 -102 26
-123 7 -99 -24 29 -141 205 -155 233 -71 136 -112 212 -120 223 -17 20 -41 15
-35 -8z m7 -690 c0 -5 -2 -10 -4 -10 -3 0 -8 5 -11 10 -3 6 -1 10 4 10 6 0 11
-4 11 -10z m510 -105 c0 -2 -14 -12 -31 -20 -17 -9 -28 -19 -25 -22 7 -7 -23
-43 -35 -43 -4 0 -6 8 -4 18 2 9 4 20 4 24 2 16 47 48 68 48 13 0 23 -2 23 -5z
m-20 -108 c0 -2 -10 -12 -21 -23 -22 -19 -22 -19 -8 4 12 19 29 30 29 19z
m300 -62 c0 -5 -5 -3 -10 5 -5 8 -10 20 -10 25 0 6 5 3 10 -5 5 -8 10 -19 10
-25z m-405 15 c-11 -5 -29 -9 -40 -9 -17 -1 -17 1 -5 9 8 5 26 9 40 9 23 0 23
-1 5 -9z m434 -70 c0 -9 -4 -8 -9 5 -5 11 -9 27 -9 35 0 9 4 8 9 -5 5 -11 9
-27 9 -35z m-406 3 c-4 -24 -16 -46 -32 -60 l-26 -22 30 -1 c18 0 25 -4 20 -9
-14 -14 -85 10 -87 29 0 8 -1 21 -1 28 1 8 -6 10 -19 6 -40 -12 -6 18 46 42
71 32 76 31 69 -13z m94 15 c-3 -13 0 -45 8 -73 7 -27 9 -54 5 -58 -4 -5 -24
3 -45 17 -21 14 -44 26 -53 26 -12 0 -12 3 -1 16 7 9 14 25 16 37 5 28 20 45
46 50 12 2 24 5 26 6 2 0 1 -9 -2 -21z m223 -7 c0 -13 -12 -20 -25 -14 -8 2
-11 11 -9 18 6 14 34 10 34 -4z m154 -57 c3 -8 2 -12 -4 -9 -6 3 -10 10 -10
16 0 14 7 11 14 -7z m17 -56 c9 -10 21 -18 27 -18 6 0 9 -17 6 -42 -3 -34 -2
-39 7 -25 5 9 14 15 19 12 5 -3 20 0 32 8 13 7 28 13 33 13 13 -1 93 -25 123
-37 13 -5 31 -9 41 -9 10 0 25 -8 33 -17 18 -21 29 -71 17 -79 -5 -3 -9 -14
-9 -25 0 -10 -3 -19 -7 -19 -5 0 -8 -23 -9 -51 -1 -60 -20 -80 -45 -47 -11 14
-18 17 -23 9 -4 -6 -4 -15 -1 -21 3 -5 1 -10 -6 -10 -8 0 -10 15 -6 50 5 50 5
50 -24 50 -16 0 -29 -4 -29 -10 0 -5 -20 -32 -44 -59 -41 -46 -44 -52 -36 -86
6 -27 5 -35 -4 -32 -7 3 -23 -4 -37 -14 -13 -10 -30 -19 -36 -19 -7 0 -13 -11
-13 -25 0 -15 -6 -25 -14 -25 -10 0 -12 7 -8 22 4 17 2 20 -11 15 -11 -4 -17
-1 -17 7 0 8 -7 16 -15 20 -8 3 -12 12 -9 20 5 14 8 14 27 1 27 -19 37 -19 37
0 0 8 1 15 3 15 1 0 20 7 42 15 28 10 33 14 18 15 -26 0 -30 22 -8 40 8 7 15
18 15 26 0 7 11 23 24 36 31 30 43 68 22 68 -8 0 -26 11 -40 23 -19 18 -23 26
-14 35 9 9 9 12 -1 12 -7 0 -15 -9 -18 -20 -3 -11 -9 -17 -14 -14 -5 3 -9 -2
-9 -11 0 -12 6 -15 19 -10 11 3 22 1 26 -4 4 -7 0 -8 -10 -5 -13 5 -15 2 -9
-21 8 -34 -14 -55 -51 -47 -20 3 -25 10 -25 33 0 16 4 29 9 29 12 0 2 88 -14
125 -7 17 -16 51 -20 77 -6 44 -5 47 17 45 13 0 30 -9 39 -19z m-1094 -44 c-3
-3 -12 -4 -19 -1 -8 3 -5 6 6 6 11 1 17 -2 13 -5z m1053 -142 c0 -36 -11 -52
-36 -52 -15 0 -24 6 -24 16 0 14 3 14 15 4 13 -10 15 -9 15 9 0 11 -4 21 -10
21 -5 0 -10 4 -10 10 0 5 7 7 15 4 17 -7 21 21 5 31 -5 3 -10 11 -10 17 0 6 9
-1 20 -15 11 -14 20 -34 20 -45z m-377 12 c9 -9 -16 -44 -30 -44 -16 0 -16 6
-3 31 11 19 22 24 33 13z m27 -47 c0 -18 -27 -53 -35 -46 -7 8 15 59 27 59 4
0 8 -6 8 -13z m273 -51 c4 4 7 -9 7 -29 0 -38 -15 -50 -24 -19 -3 9 -7 35 -10
57 -6 39 -6 39 7 12 7 -15 16 -24 20 -21z m-263 5 c-5 -11 -24 -28 -40 -38
-17 -9 -30 -21 -30 -25 0 -4 -7 -8 -15 -8 -27 0 -16 19 23 39 21 11 44 27 51
35 18 22 24 20 11 -3z m50 -19 c0 -5 -7 -17 -15 -28 -14 -18 -14 -17 -4 9 12
27 19 34 19 19z m-275 -66 c-27 -35 -45 -46 -73 -46 -10 1 -4 7 13 14 17 7 41
25 54 40 34 36 37 32 6 -8z m400 14 c0 -8 -8 -16 -17 -18 -13 -2 -18 3 -18 18
0 15 5 20 18 18 9 -2 17 -10 17 -18z m-496 -33 c-13 -19 -32 -40 -42 -46 -10
-7 -1 11 19 38 42 56 58 62 23 8z m433 1 c-7 -7 -12 -8 -12 -2 0 6 3 14 7 17
3 4 9 5 12 2 2 -3 -1 -11 -7 -17z m112 -3 c3 -8 1 -15 -5 -15 -5 0 -3 -13 6
-30 18 -34 19 -56 4 -66 -8 -4 -9 0 -4 15 4 13 1 27 -9 37 -9 8 -16 29 -16 45
0 31 14 39 24 14z m-39 -52 c4 -32 14 -62 22 -68 14 -11 9 -45 -8 -45 -5 0 -9
-6 -9 -12 0 -7 -8 -22 -16 -33 -14 -19 -16 -19 -28 -3 -12 16 -15 15 -34 -12
-12 -16 -22 -38 -22 -50 0 -29 -14 -25 -27 8 -10 26 -11 26 -12 4 -1 -27 18
-51 37 -44 17 5 15 -19 -4 -46 -17 -24 -13 -27 18 -11 11 6 22 8 25 5 3 -3
-11 -13 -31 -23 -43 -20 -54 -11 -57 42 -1 17 -3 44 -5 60 -3 31 13 75 27 75
19 0 89 86 89 110 0 14 4 40 9 58 12 39 -1 43 -16 5 l-11 -28 2 31 c1 23 6 30
22 32 19 1 23 -5 29 -55z m-659 -1 c-17 -16 -18 -16 -5 5 7 12 15 20 18 17 3
-2 -3 -12 -13 -22z m1284 -9 c12 -20 15 -31 7 -25 -7 7 -18 8 -22 4 -5 -4 -5
-1 -1 5 4 7 2 22 -4 33 -19 35 -3 22 20 -17z m-1271 -113 c-55 -76 -80 -101
-49 -48 20 35 88 118 96 118 2 0 -19 -31 -47 -70z m240 57 c-2 -1 -12 -9 -22
-16 -15 -12 -17 -12 -11 3 3 9 13 16 22 16 8 0 13 -1 11 -3z m-49 -41 c0 -3
-15 -12 -32 -20 l-33 -16 24 20 c21 19 41 26 41 16z m1128 -17 c16 -12 27 -31
27 -45 1 -31 -1 -30 -21 9 -10 17 -24 37 -33 44 -9 7 -12 13 -8 13 5 0 21 -9
35 -21z m-488 -90 c-7 -16 -16 -29 -21 -29 -13 0 -11 14 6 36 8 10 15 33 16
49 l2 30 4 -29 c3 -15 -1 -41 -7 -57z m159 44 c13 -45 14 -83 4 -83 -19 1 -43
29 -43 51 0 34 11 69 21 69 4 0 13 -17 18 -37z m-810 -50 c-12 -31 -142 -243
-147 -238 -2 2 6 22 17 46 12 23 21 49 21 56 0 8 4 11 10 8 5 -3 8 0 5 7 -3 7
13 35 36 62 22 28 45 58 50 68 15 27 20 22 8 -9z m61 -2 c0 -6 -4 -13 -10 -16
-5 -3 -10 -17 -10 -30 0 -13 -5 -27 -10 -30 -10 -6 -6 57 5 75 8 13 25 13 25
1z m1111 -38 c13 -15 12 -15 -8 -4 -24 12 -29 21 -14 21 5 0 15 -7 22 -17z
m74 7 c3 -5 -1 -10 -9 -10 -9 0 -16 5 -16 10 0 6 4 10 9 10 6 0 13 -4 16 -10z
m-655 -41 c0 -10 -4 -19 -9 -19 -12 0 -23 29 -15 41 8 14 24 0 24 -22z m160
-19 c16 -38 8 -49 -10 -15 -7 14 -17 25 -22 25 -5 0 -6 5 -3 10 11 17 22 11
35 -20z m415 19 c11 -16 1 -19 -13 -3 -7 8 -8 14 -3 14 5 0 13 -5 16 -11z
m115 1 c0 -5 -4 -10 -10 -10 -5 0 -10 5 -10 10 0 6 5 10 10 10 6 0 10 -4 10
-10z m-45 -30 c3 -5 1 -10 -4 -10 -6 0 -11 5 -11 10 0 6 2 10 4 10 3 0 8 -4
11 -10z m-1164 -26 c-12 -15 -21 -33 -21 -40 0 -7 -4 -16 -10 -19 -23 -14 -8
36 17 60 35 32 40 32 14 -1z m586 -103 c-3 -33 -10 -67 -16 -78 -11 -18 -10
-1 4 95 2 12 -1 22 -6 22 -6 0 -7 5 -4 10 3 6 11 10 17 10 7 0 9 -20 5 -59z
m440 27 c-3 -8 -6 -5 -6 6 -1 11 2 17 5 13 3 -3 4 -12 1 -19z m-931 -29 c-8
-19 -17 -42 -20 -52 -3 -10 -10 -15 -16 -12 -10 6 10 66 32 92 18 22 20 8 4
-28z m1054 -40 c0 -5 -13 6 -30 24 -16 19 -30 39 -30 43 1 12 60 -54 60 -67z
m-1138 35 c-7 -12 -11 -13 -17 -4 -4 7 -2 16 6 21 18 11 23 4 11 -17z m1412
20 c20 -8 21 -24 2 -24 -8 0 -16 7 -20 15 -6 17 -4 18 18 9z m-37 -20 c-3 -3
-12 -4 -19 -1 -8 3 -5 6 6 6 11 1 17 -2 13 -5z m-148 -20 c2 -2 -7 -8 -20 -13
-13 -5 -18 -10 -11 -10 7 -1 10 -5 7 -11 -8 -14 -55 -13 -55 1 0 6 7 9 15 5 8
-3 15 -1 15 3 0 5 -7 11 -15 15 -30 11 -14 25 23 19 20 -3 39 -7 41 -9z m-124
-4 c3 -5 2 -10 -4 -10 -5 0 -13 5 -16 10 -3 6 -2 10 4 10 5 0 13 -4 16 -10z
m182 4 c-3 -3 -12 -4 -19 -1 -8 3 -5 6 6 6 11 1 17 -2 13 -5z m-1136 -67 c-5
-14 -15 -28 -22 -32 -12 -8 -12 -7 10 38 17 33 25 29 12 -6z m210 -6 c-11 -15
-36 -40 -56 -56 -32 -24 -34 -28 -20 -39 16 -11 15 -14 -8 -29 l-25 -16 4 32
c9 65 13 73 47 85 19 7 42 21 52 32 26 29 30 24 6 -9z m814 -1 c3 -5 1 -10 -4
-10 -6 0 -11 5 -11 10 0 6 2 10 4 10 3 0 8 -4 11 -10z m-964 -27 c-12 -20 -14
-14 -5 12 4 9 9 14 11 11 3 -2 0 -13 -6 -23z m-200 0 c-18 -33 -89 -95 -103
-90 -9 4 -9 6 3 6 9 1 35 24 58 51 43 51 59 63 42 33z m1219 -33 c0 -5 -4 -10
-9 -10 -6 0 -13 5 -16 10 -3 6 1 10 9 10 9 0 16 -4 16 -10z m-1170 -24 c0 -7
-74 -76 -81 -76 -4 0 -9 6 -12 14 -4 9 0 12 11 9 10 -2 29 9 46 26 29 30 36
35 36 27z m115 -25 c-3 -6 -11 -11 -17 -11 -6 0 -6 6 2 15 14 17 26 13 15 -4z"/>
<path d="M2300 2660 c0 -5 5 -10 11 -10 5 0 7 5 4 10 -3 6 -8 10 -11 10 -2 0
-4 -4 -4 -10z"/>
<path d="M2340 2573 c1 -27 1 -27 15 -9 19 25 19 36 0 36 -10 0 -15 -10 -15
-27z"/>
<path d="M2472 2518 c-23 -23 -12 -27 62 -25 50 1 72 5 65 12 -5 5 -30 9 -54
8 -25 -1 -45 3 -45 8 0 13 -14 11 -28 -3z"/>
<path d="M6480 3690 c0 -5 5 -10 11 -10 5 0 7 5 4 10 -3 6 -8 10 -11 10 -2 0
-4 -4 -4 -10z"/>
<path d="M6460 3670 c0 -5 10 -10 23 -10 18 0 19 2 7 10 -19 13 -30 13 -30 0z"/>
<path d="M4998 3610 c-9 -14 -39 -87 -67 -162 -60 -164 -103 -259 -172 -379
-44 -78 -54 -89 -75 -86 -14 2 -25 6 -25 10 1 19 38 86 45 80 4 -5 7 -3 6 2
-5 24 1 37 14 32 12 -5 25 9 30 33 1 3 8 16 15 28 26 47 1 32 -76 -46 -43 -43
-95 -92 -116 -107 -49 -36 -79 -94 -77 -148 3 -67 2 -75 -10 -57 -8 12 -10 10
-9 -10 1 -61 -19 -89 -67 -90 -11 0 -39 -9 -62 -20 -49 -24 -88 -26 -109 -4
-9 9 -22 12 -32 8 -9 -3 -34 -10 -56 -14 -39 -8 -75 -40 -75 -67 0 -10 -6 -12
-21 -8 -15 5 -22 2 -26 -14 -9 -36 -25 -11 -18 29 10 59 -41 139 -79 124 -16
-6 -16 -8 0 -25 10 -11 12 -19 6 -19 -7 0 -12 5 -12 10 0 6 -16 10 -36 8 -19
-1 -38 3 -42 8 -4 6 -20 14 -35 18 -20 5 -27 12 -23 21 3 8 2 14 -2 14 -19 -3
-30 3 -36 19 -3 9 -11 24 -17 33 -16 22 -5 47 25 59 35 13 55 48 68 119 8 43
8 67 1 84 -9 19 -95 76 -238 157 -36 21 -95 33 -95 20 0 -5 -15 -10 -32 -12
-30 -3 -33 -6 -31 -33 1 -16 -3 -33 -10 -38 -9 -6 -5 -13 13 -25 43 -30 60
-51 60 -77 0 -18 5 -25 19 -25 11 0 45 -30 82 -72 35 -40 68 -77 73 -83 10 -9
12 -41 6 -70 -1 -5 -2 -13 -1 -17 0 -5 -3 -8 -9 -8 -5 0 -7 -8 -3 -17 4 -12
-3 -8 -19 9 -23 24 -30 26 -60 18 -47 -14 -53 -12 -34 9 9 10 16 31 14 47 -1
16 2 36 7 44 5 10 1 8 -12 -3 -12 -10 -19 -26 -16 -36 2 -10 -2 -24 -10 -32
-7 -8 -12 -20 -9 -27 2 -6 -2 -12 -10 -13 -7 0 3 -7 22 -14 46 -18 50 -18 44
0 -4 10 0 15 15 15 12 0 21 -4 21 -10 0 -5 -8 -7 -17 -4 -15 5 -15 3 2 -12 18
-15 19 -16 1 -10 -16 5 -18 3 -13 -23 9 -41 0 -43 -45 -11 -32 24 -44 27 -64
19 -16 -6 -32 -5 -44 1 -31 16 -62 12 -59 -7 3 -28 -11 -71 -26 -77 -7 -2 -21
5 -32 16 -10 12 -13 19 -7 15 6 -3 11 0 11 8 0 8 -4 12 -9 9 -4 -3 -8 0 -8 5
0 6 -9 11 -21 11 -14 0 -19 5 -17 18 2 9 10 16 17 14 7 -1 11 3 9 10 -3 7 -14
14 -26 16 -18 3 -22 -2 -22 -21 0 -27 -23 -52 -40 -42 -5 3 -10 20 -10 36 0
18 -4 28 -10 24 -6 -4 -8 -21 -4 -40 4 -25 2 -39 -10 -50 -9 -9 -16 -15 -17
-13 0 2 -3 19 -6 38 -6 41 -18 51 -49 40 -12 -5 -47 -8 -77 -7 -46 2 -60 -2
-80 -21 -18 -17 -32 -22 -46 -17 -16 5 -21 2 -21 -12 0 -32 21 -93 31 -93 6 0
8 -4 5 -9 -3 -5 10 -28 28 -51 32 -41 37 -70 12 -70 -6 0 -4 -5 4 -10 13 -8
12 -10 -2 -10 -10 0 -18 -5 -18 -11 0 -30 46 -79 165 -175 33 -27 54 -32 35
-9 -22 27 0 16 24 -12 20 -23 30 -27 82 -26 76 0 193 18 207 32 6 6 18 11 27
11 9 0 27 11 40 25 19 20 30 24 59 19 44 -7 62 9 86 81 9 28 27 64 39 80 12
17 29 45 37 62 13 31 36 49 47 38 3 -3 0 -5 -6 -5 -7 0 -12 -7 -12 -15 0 -8 5
-15 10 -15 6 0 10 3 10 8 0 4 11 20 25 36 l25 29 0 -24 c0 -19 2 -21 10 -9 16
26 25 0 24 -75 -1 -65 -4 -79 -29 -111 -20 -26 -24 -36 -12 -31 9 3 17 2 17
-4 0 -5 -8 -13 -17 -16 -10 -4 -27 -16 -38 -26 -11 -11 -14 -16 -6 -12 8 4 17
2 22 -6 13 -21 11 -26 -15 -33 -39 -10 -120 -96 -90 -96 3 0 14 10 25 23 l18
22 1 -22 c0 -12 -6 -28 -13 -35 -7 -7 -16 -21 -20 -30 -3 -10 -13 -18 -22 -18
-8 0 -15 -5 -15 -10 0 -6 15 -4 37 5 43 18 51 15 23 -10 -11 -10 -20 -15 -20
-11 0 3 -13 0 -30 -9 -18 -10 -31 -24 -32 -38 0 -12 -1 -29 -2 -37 -1 -8 -14
-17 -30 -20 -31 -5 -49 -30 -22 -30 8 0 18 -5 21 -10 9 -14 -13 -40 -34 -40
-14 1 -14 2 2 11 21 12 22 29 2 29 -8 0 -15 -4 -15 -9 0 -5 -19 -11 -42 -15
-28 -5 -38 -10 -29 -15 16 -10 -18 -21 -66 -21 -24 0 -37 -7 -49 -26 -9 -14
-23 -23 -30 -20 -9 3 -14 -2 -14 -14 0 -11 7 -20 16 -20 8 0 12 -5 9 -10 -3
-5 -14 -10 -24 -10 -19 0 -45 -45 -36 -61 4 -5 14 -9 23 -9 14 0 14 -2 3 -9
-7 -5 -10 -14 -7 -20 4 -6 2 -11 -3 -11 -18 0 -12 -18 7 -23 14 -4 15 -5 1 -6
-18 -1 -34 -54 -18 -59 17 -6 9 -21 -13 -24 -12 -2 -23 -9 -26 -17 -3 -8 0
-11 6 -7 12 7 54 -23 47 -35 -3 -4 18 -7 46 -7 56 0 73 -8 46 -23 -9 -6 -15
-14 -12 -19 7 -11 65 8 65 21 0 5 5 9 10 9 7 0 7 -6 1 -19 -9 -16 -7 -20 14
-23 14 -3 25 -1 25 3 0 5 -4 9 -9 9 -17 0 2 50 22 56 12 4 34 16 50 28 22 16
30 18 36 8 13 -21 62 -43 82 -37 14 5 20 0 25 -19 3 -14 10 -26 16 -26 5 0 6
5 3 10 -3 6 -1 10 4 10 6 0 11 -5 11 -11 0 -8 4 -8 14 0 11 9 15 5 19 -18 4
-17 14 -32 26 -36 23 -7 48 -79 34 -98 -5 -7 -8 -29 -7 -50 0 -21 -2 -34 -5
-28 -4 5 -11 7 -17 3 -17 -10 -26 -49 -14 -57 5 -3 10 -13 10 -22 0 -9 9 -36
21 -60 11 -23 21 -65 22 -92 1 -27 6 -53 10 -57 11 -11 9 -34 -3 -34 -6 0 -15
11 -20 25 -13 33 -34 33 -27 0 3 -16 0 -24 -7 -22 -6 2 -12 16 -14 31 -2 15
-10 30 -18 33 -9 3 -14 20 -14 47 0 22 -5 70 -10 106 -8 51 -16 70 -37 87 -14
12 -36 45 -49 75 -13 29 -24 49 -24 43 -1 -5 -5 0 -10 11 -12 31 -90 41 -90
12 0 -5 10 -7 23 -3 17 5 13 -2 -18 -30 -78 -70 -137 -111 -177 -120 -15 -4
-32 -13 -39 -21 -6 -8 -21 -14 -33 -13 -21 0 -21 1 -1 10 15 7 10 8 -20 4 -22
-2 -55 1 -74 8 -27 9 -35 9 -38 0 -4 -10 -9 -10 -26 -1 -18 10 -86 37 -94 38
-2 0 -3 -4 -3 -9 0 -5 10 -13 22 -17 l23 -7 -25 -9 c-13 -5 -31 -6 -39 -3 -12
5 -13 3 -4 -6 14 -14 132 -27 166 -18 32 9 167 -39 167 -58 0 -17 42 -17 83 0
18 8 38 12 45 10 6 -3 12 1 12 8 0 6 10 22 23 34 12 12 33 39 47 58 26 38 67
50 75 22 16 -51 16 -50 25 -35 6 10 8 -15 7 -70 -3 -70 -6 -86 -20 -88 -9 -2
-17 -8 -17 -13 0 -5 -10 -8 -22 -6 -15 1 -23 -4 -25 -18 -9 -53 -15 -65 -34
-76 -14 -7 -24 -8 -31 -1 -16 16 -38 2 -38 -24 0 -13 -13 -37 -30 -54 -16 -17
-30 -35 -30 -40 0 -11 -77 -36 -86 -28 -3 3 -5 25 -6 48 0 47 -8 44 -41 -21
-22 -43 -23 -44 -75 -45 -29 -1 -55 -3 -57 -6 -14 -14 -61 9 -98 49 -23 24
-55 58 -70 74 -19 20 -27 37 -24 50 3 10 1 19 -4 19 -5 0 -9 -5 -9 -11 0 -7
-14 6 -31 27 -23 30 -29 44 -23 64 11 38 13 80 4 80 -15 0 -30 -28 -24 -44 8
-20 -15 -21 -42 -1 -31 23 -34 19 -33 -47 1 -78 -9 -135 -25 -141 -9 -4 -11 3
-8 19 3 18 0 24 -13 24 -10 0 -15 -5 -12 -13 7 -19 -8 -41 -22 -33 -8 5 -8 13
-1 27 6 11 8 24 5 29 -9 14 -27 1 -19 -13 5 -8 3 -8 -6 0 -12 11 -11 15 5 27
10 7 16 20 13 28 -3 8 -2 34 3 59 5 24 12 67 15 94 4 45 2 53 -21 75 -18 17
-25 34 -25 60 0 20 -5 51 -11 69 -8 23 -8 35 0 45 7 8 10 19 9 26 -2 7 3 15
11 18 10 3 12 0 8 -13 -10 -25 1 -37 24 -25 11 6 17 15 15 19 -3 4 1 17 9 27
8 10 15 27 15 37 0 10 3 16 8 14 10 -7 32 19 24 28 -4 3 -7 14 -7 22 0 18 -35
27 -35 10 -1 -7 -10 -23 -20 -36 -16 -19 -26 -22 -51 -17 l-32 6 7 -50 c5 -34
3 -50 -4 -50 -6 0 -8 5 -5 10 9 15 1 13 -123 -32 l-115 -42 28 -24 c25 -21 27
-27 16 -43 -15 -26 -8 -36 40 -56 21 -8 39 -17 39 -20 0 -17 -58 -47 -84 -45
-26 2 -28 1 -13 -8 9 -6 22 -8 28 -4 7 4 9 0 5 -13 -9 -28 17 -46 73 -53 34
-4 45 -9 42 -20 -2 -8 -6 -29 -9 -47 -4 -31 -2 -33 42 -44 45 -11 57 -28 38
-55 -4 -6 -44 -11 -92 -12 -47 -1 -98 -6 -115 -11 -27 -8 -25 -9 25 -11 242
-7 240 -7 302 -72 l34 -37 -40 1 c-23 0 -63 4 -91 8 -99 16 -167 21 -160 10 9
-14 -21 -13 -44 2 -18 11 -18 13 -3 24 14 10 -6 13 -110 16 -92 2 -133 -1
-145 -10 -14 -10 -6 -12 50 -9 37 2 70 0 73 -5 3 -4 24 -8 47 -8 23 0 49 -5
57 -11 25 -18 -221 -1 -297 20 -49 14 -132 14 -172 0 -23 -8 -40 -8 -63 0 -18
7 -66 14 -105 18 -108 9 -92 -12 20 -26 50 -6 110 -14 132 -17 22 -3 96 -7
165 -9 69 -2 146 -8 171 -14 73 -17 209 -22 206 -8 -1 9 42 12 168 12 94 0
177 4 186 8 13 6 22 0 39 -27 19 -32 27 -36 61 -36 30 0 45 -6 62 -25 25 -29
59 -36 177 -38 53 -2 83 -7 100 -19 l25 -17 -25 -1 c-22 0 -23 -2 -8 -11 19
-11 45 1 88 38 22 20 30 21 55 12 24 -9 40 -8 75 4 25 9 37 16 28 17 -11 0
-15 5 -12 15 4 10 20 15 49 15 38 0 45 4 56 28 11 25 18 29 56 30 31 0 51 7
74 26 17 14 37 26 44 26 7 0 20 19 27 43 12 34 20 43 41 45 15 2 27 7 27 11 0
5 9 11 20 14 35 9 20 86 -28 140 -8 9 -13 19 -10 22 7 8 56 7 101 -1 32 -5 37
-4 37 14 0 11 -7 25 -16 33 -14 11 -13 14 11 26 14 8 25 20 22 26 -2 7 -35 31
-73 54 -38 24 -68 48 -66 54 1 6 -2 8 -8 4 -23 -14 -38 14 -29 53 5 20 9 84 9
141 0 96 2 104 24 122 13 10 26 32 29 49 4 16 11 30 17 30 33 0 57 54 65 147
6 59 11 92 30 189 5 24 67 54 110 54 22 0 25 -4 25 -38 0 -21 -5 -43 -12 -50
-8 -8 -8 -15 -1 -24 17 -22 26 -135 11 -141 -10 -4 -11 -7 0 -18 6 -7 12 -18
12 -23 0 -6 -5 -4 -10 4 -8 13 -10 12 -10 -4 0 -11 12 -32 26 -47 16 -17 31
-52 42 -95 24 -97 92 -189 158 -214 14 -6 50 -14 81 -19 54 -8 72 -4 133 28
16 9 18 67 5 128 -6 27 -5 31 11 28 11 -2 25 -4 32 -4 8 -1 12 -18 12 -51 0
-39 4 -52 18 -57 9 -3 38 -23 64 -44 27 -23 57 -39 72 -39 36 0 33 25 -4 40
-29 12 -60 40 -44 40 5 0 25 -10 44 -22 30 -19 76 -25 89 -12 2 2 -33 38 -77
81 -72 69 -87 90 -132 186 -28 60 -49 111 -47 113 2 3 16 -23 31 -56 15 -33
32 -60 39 -60 7 0 25 -21 42 -47 38 -60 90 -114 107 -111 7 2 14 -7 16 -19 5
-31 28 -49 46 -34 10 9 16 8 26 -4 7 -8 22 -15 34 -15 19 1 18 3 -9 26 -64 53
-115 108 -115 123 0 9 -9 27 -21 41 -38 48 -60 80 -55 80 7 0 126 -149 126
-158 0 -10 53 -59 102 -95 35 -26 37 -26 43 -8 4 13 12 18 21 14 10 -4 17 2
21 16 3 11 9 21 14 21 5 0 9 9 9 20 0 11 4 20 9 20 5 0 12 13 16 30 4 16 13
30 21 30 17 0 17 5 2 33 -10 20 -10 21 5 8 12 -9 17 -10 17 -2 0 6 11 16 25
21 18 7 25 17 25 35 0 14 5 25 11 25 6 0 17 7 26 15 15 15 14 41 -2 90 -5 18
-2 21 29 20 34 -2 52 18 24 27 -6 2 -13 23 -15 45 -4 39 -2 41 19 36 13 -3 29
-10 36 -16 19 -15 28 1 14 23 -11 18 -9 19 10 17 18 -1 23 3 24 23 1 14 -5 33
-14 43 -14 15 -14 17 1 17 9 0 18 -4 22 -10 3 -5 12 -7 21 -3 23 9 6 86 -22
97 -8 3 -14 10 -14 16 0 6 12 4 29 -5 27 -13 31 -13 45 1 21 20 20 40 -1 54
-17 11 -17 11 0 6 22 -7 22 5 -3 36 -10 14 -16 28 -13 32 3 3 1 6 -5 6 -7 0
-12 5 -12 10 0 7 6 7 19 0 26 -13 49 -3 65 29 25 47 13 83 -39 116 -35 24 -43
45 -15 45 52 0 80 31 95 106 8 42 -11 55 -90 62 -36 2 -68 8 -70 13 -3 4 10
16 27 28 61 37 110 96 118 143 9 50 -9 108 -35 108 -9 0 -59 -18 -111 -40
-108 -46 -149 -57 -158 -41 -4 6 -1 11 7 11 23 0 174 157 198 206 29 60 31
147 5 187 -10 15 -24 27 -31 27 -7 0 -47 -39 -89 -87 -115 -131 -198 -203
-235 -203 -28 0 -27 18 1 22 12 2 25 12 28 23 3 11 17 38 31 60 34 51 70 132
99 217 22 66 22 69 6 120 -18 56 -60 128 -75 128 -16 0 -31 -27 -56 -106 -28
-86 -105 -237 -156 -306 -35 -48 -33 -31 5 57 36 81 78 237 84 313 3 46 2 52
-15 52 -10 0 -28 -7 -40 -15 -20 -14 -22 -13 -25 2 -3 15 -6 14 -20 -7z
m-1382 -512 c14 -28 15 -31 2 -20 -14 11 -31 52 -22 52 2 0 11 -15 20 -32z
m1564 -187 c0 -11 -36 -21 -70 -20 -22 0 -21 2 10 14 42 16 60 18 60 6z m-530
-25 c0 -3 -4 -8 -10 -11 -5 -3 -10 -1 -10 4 0 6 5 11 10 11 6 0 10 -2 10 -4z
m203 -82 c8 -8 -3 -34 -15 -34 -5 0 -7 4 -4 9 3 5 -1 12 -10 15 -12 4 -15 2
-10 -9 7 -18 2 -19 -27 -3 -21 11 -21 11 -2 19 25 9 60 11 68 3z m-198 -63 c5
-16 4 -21 -4 -17 -6 4 -11 2 -11 -3 0 -6 4 -11 10 -11 5 0 7 -7 4 -15 -10 -24
-26 -5 -21 23 3 15 -2 40 -10 57 l-15 30 20 -20 c11 -11 23 -31 27 -44z m560
9 c8 -13 62 -13 67 1 2 6 19 9 38 7 33 -3 33 -4 15 -21 -15 -15 -28 -18 -69
-13 -72 8 -76 8 -70 17 2 4 -6 10 -18 12 -20 4 -20 4 4 6 15 0 30 -3 33 -9z
m-445 -31 c0 -6 -4 -7 -10 -4 -5 3 -10 11 -10 16 0 6 5 7 10 4 6 -3 10 -11 10
-16z m164 -4 c21 -4 53 -14 72 -22 27 -13 31 -19 22 -30 -6 -8 -17 -12 -25 -9
-7 3 -13 -1 -13 -8 0 -17 25 -27 44 -20 11 4 14 -1 12 -23 -2 -18 2 -31 13
-36 10 -5 6 -6 -12 -3 -21 2 -27 0 -23 -10 10 -26 -19 -14 -63 27 -26 24 -40
44 -33 48 15 9 27 61 13 61 -6 0 -11 -4 -11 -10 0 -15 -46 -12 -59 3 -6 8 -7
18 -3 22 4 5 2 5 -4 2 -7 -4 -18 0 -25 9 -14 17 -19 17 95 -1z m141 -6 c12
-19 -5 -23 -22 -6 -16 16 -16 17 -1 17 9 0 20 -5 23 -11z m-1151 -25 c4 -11 2
-12 -14 -1 -11 6 -20 15 -20 19 0 12 28 -3 34 -18z m-864 -10 c15 -38 12 -52
-11 -64 -19 -11 -20 -10 -9 10 8 15 8 30 1 51 -13 37 5 40 19 3z m1451 3 c-10
-9 -11 -8 -5 6 3 10 9 15 12 12 3 -3 0 -11 -7 -18z m-836 -16 c-3 -12 -11 -21
-16 -21 -6 0 -8 3 -6 8 2 4 7 16 11 26 9 25 20 13 11 -13z m-195 -1 c0 -5 -7
-10 -16 -10 -8 0 -12 5 -9 10 3 6 10 10 16 10 5 0 9 -4 9 -10z m445 -36 c16
-25 16 -27 -2 -43 -18 -17 -19 -17 -19 26 0 23 1 43 2 43 1 0 9 -12 19 -26z
m40 -19 c21 -17 25 -43 7 -41 -9 0 -19 -10 -23 -24 -5 -18 -7 -11 -6 25 0 28
-3 59 -7 70 l-8 20 13 -20 c7 -11 18 -24 24 -30z m439 23 c-2 -13 -2 -17 2
-10 3 7 15 17 26 23 17 9 18 8 10 -8 -5 -10 -7 -24 -4 -32 4 -13 -9 -68 -29
-119 -5 -13 -14 -20 -19 -17 -6 4 -7 -1 -3 -11 4 -12 3 -15 -5 -10 -8 5 -10 1
-5 -10 4 -11 3 -15 -5 -10 -7 4 -10 -1 -9 -14 2 -24 1 -24 23 -2 17 16 18 16
11 0 -3 -10 -2 -28 3 -40 l9 -23 0 22 c1 12 10 37 21 55 10 18 26 62 34 97 23
101 68 130 47 31 -6 -28 -11 -64 -11 -80 0 -47 -21 -131 -31 -124 -5 3 -9 0
-9 -5 0 -6 5 -11 11 -11 16 0 2 -50 -21 -75 -9 -11 -21 -41 -24 -67 -4 -26
-14 -54 -22 -62 -7 -8 -11 -22 -8 -30 4 -11 0 -16 -14 -16 -17 0 -22 9 -28 45
-3 25 -10 45 -15 45 -4 0 -13 18 -19 40 -12 44 -21 52 -62 57 -27 3 -28 1 -17
-20 12 -21 11 -21 -7 -7 -30 24 -34 33 -28 65 3 17 2 25 -3 20 -14 -18 -61
-14 -66 5 -3 13 -14 18 -34 18 -16 -1 -39 5 -52 11 -20 11 -22 18 -16 49 4 21
14 45 22 55 9 9 11 17 5 17 -21 0 3 55 26 58 12 2 22 6 22 10 0 4 13 7 29 8
16 1 51 11 78 24 46 22 171 69 185 70 3 0 4 -10 2 -22z m-921 -40 c7 -4 8 -8
2 -8 -23 1 -47 29 -40 47 6 16 8 15 16 -7 6 -13 15 -28 22 -32z m1646 11 c35
-12 41 -29 10 -29 -11 0 -17 -4 -14 -10 3 -6 -1 -7 -10 -3 -13 4 -14 8 -4 14
11 6 10 9 -4 15 -9 3 -17 10 -17 15 0 11 0 11 39 -2z m-254 -29 c10 -11 16
-20 13 -20 -3 0 -13 9 -23 20 -10 11 -16 20 -13 20 3 0 13 -9 23 -20z m-1785
0 c0 -5 -5 -10 -11 -10 -5 0 -7 5 -4 10 3 6 8 10 11 10 2 0 4 -4 4 -10z m1687
-50 c9 -40 32 -70 54 -70 11 0 18 -4 14 -10 -3 -5 -13 -6 -21 -3 -14 5 -15 0
-10 -28 l6 -34 -17 35 c-10 19 -21 37 -25 38 -5 2 -8 14 -8 27 0 12 -7 39 -15
58 -8 20 -15 40 -15 44 1 15 31 -32 37 -57z m134 -81 c25 -40 149 -160 149
-144 0 3 -5 16 -12 28 -10 20 -10 21 5 8 10 -7 17 -18 17 -23 0 -17 72 -123
139 -203 62 -75 97 -132 88 -142 -3 -2 -26 29 -53 69 -26 40 -70 100 -97 132
-27 33 -54 70 -60 83 -6 13 -26 31 -44 40 -34 16 -150 138 -173 183 -13 23
-14 24 -21 5 -8 -20 -14 -6 -10 23 1 7 -7 25 -19 41 -11 16 -20 32 -20 36 0
11 83 -89 111 -136z m43 115 c3 -8 2 -12 -4 -9 -6 3 -10 10 -10 16 0 14 7 11
14 -7z m444 -18 c9 -9 -18 -7 -62 6 -64 18 -65 27 -1 13 31 -8 60 -16 63 -19z
m-1376 -5 c-5 -3 -12 -17 -13 -30 -7 -44 -29 -37 -27 8 1 32 5 41 22 43 23 3
35 -10 18 -21z m875 -21 c15 -22 32 -40 36 -40 5 0 5 5 2 10 -10 16 4 12 38
-11 l32 -22 -32 32 c-37 36 -46 67 -10 33 28 -26 45 -29 26 -4 -7 9 0 6 16 -8
44 -36 54 -50 49 -65 -3 -7 2 -15 10 -18 10 -4 13 -1 9 9 -10 26 30 10 87 -35
30 -24 81 -61 113 -83 31 -21 57 -41 57 -44 0 -3 -6 -2 -12 2 -38 22 -138 92
-174 121 -31 25 -43 30 -52 21 -9 -9 -5 -20 20 -45 18 -18 27 -33 20 -33 -6 0
-24 17 -39 38 -37 49 -53 60 -76 54 -19 -5 -19 -5 1 -16 19 -10 69 -66 59 -66
-2 0 -17 11 -32 24 -16 14 -33 23 -37 20 -5 -3 -23 9 -42 28 -53 54 -119 138
-108 138 6 0 23 -18 39 -40z m-157 21 c0 -5 3 -18 6 -28 5 -16 4 -16 -10 1
-18 23 -20 36 -6 36 6 0 10 -4 10 -9z m189 -25 c-3 -3 -11 5 -18 17 -13 21
-12 21 5 5 10 -10 16 -20 13 -22z m229 -19 c39 -26 72 -50 72 -52 0 -11 -119
57 -140 80 -32 35 -22 31 68 -28z m-393 -57 c7 0 15 -9 18 -20 3 -11 1 -20 -4
-20 -5 0 -9 5 -9 10 0 6 -6 10 -14 10 -8 0 -17 7 -20 16 -3 8 -10 12 -16 9 -5
-3 -10 -4 -10 -1 0 2 -3 12 -7 22 -6 16 -3 15 21 -4 16 -12 34 -22 41 -22z
m-184 -48 c17 -27 26 -28 32 -4 3 11 5 7 6 -10 1 -37 -16 -44 -41 -16 -12 12
-19 16 -16 8 21 -60 21 -65 5 -52 -21 17 -31 63 -17 72 9 6 9 13 1 29 -7 12
-9 27 -5 33 5 8 10 3 14 -13 4 -13 13 -35 21 -47z m-677 33 c-4 -8 -11 -15
-16 -15 -6 0 -5 6 2 15 7 8 14 15 16 15 2 0 1 -7 -2 -15z m800 -21 c4 -10 12
-14 22 -10 20 8 74 -21 74 -39 0 -13 11 -19 31 -17 3 0 18 -11 35 -24 l29 -26
-34 23 c-28 18 -33 20 -28 6 7 -18 -8 -33 -18 -17 -3 6 -20 17 -37 26 -16 9
-27 11 -24 5 9 -14 -7 -14 -21 0 -8 8 -11 1 -9 -24 2 -51 -12 -35 -19 21 -3
26 -10 57 -15 70 -5 12 -6 22 -1 22 5 0 12 -7 15 -16z m636 1 c14 -8 21 -14
15 -14 -5 0 -21 6 -35 14 -14 8 -20 14 -15 14 6 0 21 -6 35 -14z m-329 -110
c15 -16 26 -32 23 -34 -5 -5 -29 21 -103 104 -23 26 -21 26 14 -5 21 -19 51
-48 66 -65z m-98 53 c70 -55 161 -139 171 -156 7 -13 5 -13 -12 2 l-22 19 0
-37 c0 -25 9 -49 27 -74 18 -23 21 -31 9 -22 -10 8 -29 32 -42 52 -14 21 -30
38 -37 38 -8 0 -37 25 -66 55 -67 70 -54 72 18 3 31 -29 52 -49 48 -44 -3 5 1
15 11 23 16 12 14 17 -26 51 -88 75 -137 122 -128 122 4 0 27 -15 49 -32z
m-234 -43 l0 -20 -9 20 c-5 11 -9 29 -9 40 l0 20 9 -20 c5 -11 9 -29 9 -40z
m-96 -61 c3 -16 2 -36 -4 -44 -6 -11 -9 -2 -9 28 0 23 -4 42 -9 42 -8 0 -31
51 -31 68 0 16 48 -69 53 -94z m-743 65 c0 -6 -4 -7 -10 -4 -5 3 -10 11 -10
16 0 6 5 7 10 4 6 -3 10 -11 10 -16z m1330 -1 c0 -6 -6 -5 -15 2 -8 7 -15 14
-15 16 0 2 7 1 15 -2 8 -4 15 -11 15 -16z m-545 -27 c-4 -17 -11 -28 -17 -25
-6 4 -6 10 1 17 6 6 11 20 11 31 0 10 3 17 6 13 3 -3 3 -19 -1 -36z m-91 -46
c10 -25 26 -51 36 -58 16 -11 16 -15 4 -32 -13 -17 -16 -18 -24 -5 -5 8 -10
22 -10 31 0 9 -8 23 -17 30 -15 12 -16 12 -10 -3 3 -9 12 -44 18 -77 11 -49
10 -62 -1 -76 -12 -14 -15 -13 -26 14 -7 17 -18 31 -25 31 -8 0 -9 -3 0 -13 6
-8 7 -18 3 -22 -4 -5 -2 -5 4 -2 8 5 11 -2 10 -18 -2 -37 -10 -31 -29 22 -15
40 -16 54 -5 107 7 34 18 65 25 69 7 4 13 17 13 27 0 34 17 22 34 -25z m-699
25 c-3 -5 -14 -10 -23 -9 -14 0 -13 2 3 9 27 11 27 11 20 0z m977 -17 c15 -15
28 -31 28 -35 0 -5 -12 4 -26 19 -20 22 -23 23 -15 6 14 -28 14 -30 -5 -37 -8
-3 -12 -2 -9 4 3 5 -1 23 -10 40 -20 39 -2 40 37 3z m262 1 c3 -8 2 -12 -4 -9
-6 3 -10 10 -10 16 0 14 7 11 14 -7z m212 -36 c4 -7 -9 1 -29 16 -20 16 -37
30 -37 33 0 7 58 -36 66 -49z m113 26 c14 -12 -19 -1 -35 12 -18 14 -18 14 6
3 14 -6 27 -13 29 -15z m-719 -17 c0 -5 -4 -5 -10 -2 -5 3 -10 14 -10 23 0 15
2 15 10 2 5 -8 10 -19 10 -23z m221 -4 c13 -16 12 -17 -3 -4 -17 13 -22 21
-14 21 2 0 10 -8 17 -17z m-591 -18 c0 -14 -2 -25 -4 -25 -2 0 -6 11 -8 25 -3
14 -1 25 3 25 5 0 9 -11 9 -25z m454 -33 c6 -37 -8 -40 -30 -6 -8 13 -9 26 -2
44 11 29 21 17 32 -38z m-39 -25 c29 -58 34 -95 9 -62 -14 19 -15 16 -8 -30
l7 -50 -28 25 c-15 14 -33 37 -41 52 -16 31 -19 112 -4 103 6 -3 10 1 10 9 0
29 29 4 55 -47z m253 -79 c55 -51 81 -63 62 -28 -6 11 -8 20 -5 20 3 0 -24 30
-60 66 -36 37 -63 69 -60 72 3 3 18 -7 34 -24 38 -38 61 -56 61 -48 0 4 8 -3
19 -14 10 -12 23 -22 28 -22 15 0 13 -71 -3 -77 -10 -4 -13 -15 -8 -38 4 -23
2 -34 -9 -38 -8 -3 -14 0 -14 6 1 46 -7 65 -46 101 -41 39 -127 148 -127 161
0 4 17 -15 38 -42 22 -26 62 -69 90 -95z m292 87 c30 -30 52 -55 49 -55 -2 0
-29 25 -59 55 -30 30 -52 55 -49 55 2 0 29 -25 59 -55z m120 -23 c0 -7 -56 36
-75 59 -11 12 1 5 28 -16 26 -22 47 -41 47 -43z m-789 -94 c-6 -17 -11 -48
-11 -69 0 -46 -17 -60 -26 -23 -7 26 -7 26 -18 6 -9 -16 -13 -17 -23 -7 -9 10
-4 20 23 46 19 18 34 41 34 51 0 10 6 37 13 59 l12 41 3 -37 c2 -20 -1 -51 -7
-67z m414 -128 c7 -31 1 -50 -16 -50 -6 0 -8 4 -4 10 8 13 -22 80 -49 110 -12
14 -33 41 -46 60 -14 22 1 11 43 -33 37 -39 68 -81 72 -97z m229 26 c39 -26
42 -35 5 -16 -25 14 -24 5 6 -47 14 -23 24 -43 22 -43 -4 0 -80 103 -155 210
-16 22 -6 14 29 -22 30 -31 72 -68 93 -82z m-828 99 c-4 -38 -16 -43 -16 -7 0
18 4 32 9 32 5 0 8 -11 7 -25z m30 -22 c-7 -7 -26 7 -26 19 0 6 6 6 15 -2 9
-7 13 -15 11 -17z m540 -171 c13 -66 -17 -51 -36 19 -5 20 -19 44 -31 55 -12
10 -28 32 -36 49 -11 22 0 14 41 -30 35 -38 58 -72 62 -93z m-1429 72 c-3 -3
-12 -4 -19 -1 -8 3 -5 6 6 6 11 1 17 -2 13 -5z m966 -35 c-5 -16 -8 -18 -14
-7 -5 7 -9 21 -9 32 0 15 3 16 14 7 8 -7 12 -21 9 -32z m228 -4 c8 -16 6 -15
-10 4 -12 13 -21 28 -21 35 0 12 14 -5 31 -39z m160 -19 c24 -27 35 -44 24
-38 -25 13 -59 50 -75 82 -14 28 -12 26 51 -44z m-16 -58 l70 -71 -67 58 c-55
47 -88 85 -75 85 1 0 34 -32 72 -72z m333 -13 l12 -30 -23 27 c-12 15 -31 42
-41 60 l-19 33 29 -30 c16 -16 35 -43 42 -60z m-1831 59 c-3 -3 -12 -4 -19 -1
-8 3 -5 6 6 6 11 1 17 -2 13 -5z m190 -10 c-3 -3 -12 -4 -19 -1 -8 3 -5 6 6 6
11 1 17 -2 13 -5z m-154 -11 c-7 -2 -19 -2 -25 0 -7 3 -2 5 12 5 14 0 19 -2
13 -5z m1198 -115 c12 -16 19 -31 16 -34 -6 -7 -63 94 -71 126 -3 14 3 5 14
-18 11 -24 29 -57 41 -74z m-130 -45 c10 -24 10 -36 2 -44 -14 -14 -42 65 -48
141 l-5 55 19 -60 c10 -33 25 -75 32 -92z m-1141 100 c-12 -8 -23 -13 -26 -10
-8 8 27 38 38 31 5 -3 0 -13 -12 -21z m1820 -37 c0 -5 -7 -3 -15 4 -8 7 -15
20 -15 28 0 13 3 12 15 -4 8 -10 15 -23 15 -28z m-1338 -8 c-8 -8 -9 -4 -5 13
4 13 8 18 11 10 2 -7 -1 -18 -6 -23z m-57 -18 c-3 -5 -11 -10 -16 -10 -6 0 -7
5 -4 10 3 6 11 10 16 10 6 0 7 -4 4 -10z m1187 -58 c24 -31 48 -64 53 -72 20
-33 -26 13 -62 64 -21 28 -41 53 -45 54 -5 2 -8 8 -8 13 0 17 17 1 62 -59z
m169 31 c13 -16 12 -17 -3 -4 -10 7 -18 15 -18 17 0 8 8 3 21 -13z m-1345 -47
c-18 -15 -27 -30 -23 -39 7 -20 -17 -40 -40 -34 -14 4 -13 5 5 6 15 1 22 7 22
20 0 15 -8 21 -32 23 l-33 4 30 13 c17 8 40 13 52 13 12 -1 25 3 28 8 3 6 9
10 13 10 4 -1 -6 -11 -22 -24z m1315 -3 c13 -16 12 -17 -3 -4 -17 13 -22 21
-14 21 2 0 10 -8 17 -17z m-36 -33 c16 -17 16 -20 3 -15 -9 4 -19 13 -22 21
-7 19 -2 18 19 -6z m-1400 -20 c3 -5 2 -10 -4 -10 -5 0 -13 5 -16 10 -3 6 -2
10 4 10 5 0 13 -4 16 -10z m42 4 c-3 -3 -12 -4 -19 -1 -8 3 -5 6 6 6 11 1 17
-2 13 -5z m-317 -24 c0 -5 -7 -10 -16 -10 -8 0 -12 5 -9 10 3 6 10 10 16 10 5
0 9 -4 9 -10z m-480 -430 c0 -5 -2 -10 -4 -10 -3 0 -8 5 -11 10 -3 6 -1 10 4
10 6 0 11 -4 11 -10z m-205 -199 c-3 -6 -11 -11 -17 -11 -6 0 -6 6 2 15 14 17
26 13 15 -4z m-298 -87 c-3 -3 -12 -4 -19 -1 -8 3 -5 6 6 6 11 1 17 -2 13 -5z"/>
<path d="M4890 2700 c20 -13 33 -13 25 0 -3 6 -14 10 -23 10 -15 0 -15 -2 -2
-10z"/>
<path d="M4210 2480 c0 -5 5 -10 10 -10 6 0 10 5 10 10 0 6 -4 10 -10 10 -5 0
-10 -4 -10 -10z"/>
<path d="M4275 2470 c10 -32 13 -36 25 -24 7 7 3 17 -11 30 -22 19 -22 19 -14
-6z"/>
<path d="M4366 2316 c4 -10 1 -16 -8 -16 -10 0 -12 -11 -10 -40 2 -22 -1 -46
-6 -53 -8 -9 -6 -16 9 -25 18 -12 21 -11 26 7 3 12 9 21 13 21 9 0 25 40 22
53 -1 4 3 7 8 7 6 0 10 12 10 26 0 19 -4 25 -14 21 -8 -3 -17 -1 -20 6 -3 8
-5 8 -5 -2 -1 -11 -4 -11 -16 -1 -13 11 -14 10 -9 -4z m37 -33 c-7 -3 -13 -11
-13 -19 0 -8 -4 -14 -10 -14 -15 0 -12 11 7 32 9 10 19 15 22 12 3 -4 0 -9 -6
-11z"/>
<path d="M4942 2458 c2 -6 15 -18 29 -27 l24 -15 -24 27 c-26 29 -35 34 -29
15z"/>
<path d="M5027 2449 c7 -7 15 -10 18 -7 3 3 -2 9 -12 12 -14 6 -15 5 -6 -5z"/>
<path d="M3261 3036 c-6 -8 -14 -37 -18 -65 -3 -28 -10 -48 -15 -45 -5 3 -7
12 -4 19 2 7 -6 17 -18 23 -17 7 -27 5 -45 -9 -24 -20 -23 -36 1 -27 25 10 33
8 33 -10 0 -10 7 -16 19 -15 10 0 25 -11 35 -28 21 -37 33 -37 50 1 9 23 18
29 31 25 10 -3 21 -1 25 5 3 5 -3 10 -14 10 -11 0 -23 5 -26 10 -3 6 3 10 14
10 12 0 21 5 21 10 0 6 11 3 25 -6 14 -9 25 -12 25 -6 0 14 -40 62 -52 62 -7
0 -7 -5 1 -14 9 -11 7 -15 -11 -19 -30 -8 -38 -1 -39 36 0 18 -3 26 -6 20 -8
-21 -26 -15 -20 7 6 24 4 25 -12 6z m16 -68 c-3 -7 -5 -2 -5 12 0 14 2 19 5
13 2 -7 2 -19 0 -25z m10 -50 c-3 -8 -6 -5 -6 6 -1 11 2 17 5 13 3 -3 4 -12 1
-19z"/>
<path d="M1 3014 c0 -11 3 -14 6 -6 3 7 2 16 -1 19 -3 4 -6 -2 -5 -13z"/>
<path d="M3102 2988 c-14 -14 -16 -28 -3 -28 9 0 24 30 18 36 -2 2 -9 -2 -15
-8z"/>
<path d="M3555 2989 c-4 -6 -5 -12 -2 -15 2 -3 7 2 10 11 7 17 1 20 -8 4z"/>
<path d="M4 2545 c0 -242 1 -419 3 -392 4 46 9 51 46 48 13 -2 17 5 17 35 0
28 -7 42 -30 63 l-30 26 -3 330 c-2 258 -2 234 -3 -110z"/>
<path d="M3610 2889 c0 -5 5 -7 10 -4 6 3 10 8 10 11 0 2 -4 4 -10 4 -5 0 -10
-5 -10 -11z"/>
<path d="M3212 2851 c-8 -5 -12 -17 -10 -27 2 -15 5 -13 15 9 14 30 14 30 -5
18z"/>
<path d="M3620 2850 c0 -5 5 -10 10 -10 6 0 10 5 10 10 0 6 -4 10 -10 10 -5 0
-10 -4 -10 -10z"/>
<path d="M3330 2830 c0 -5 5 -10 11 -10 5 0 7 5 4 10 -3 6 -8 10 -11 10 -2 0
-4 -4 -4 -10z"/>
<path d="M3460 2800 c19 -13 30 -13 30 0 0 6 -10 10 -22 10 -19 0 -20 -2 -8
-10z"/>
<path d="M3770 2800 c0 -5 5 -10 10 -10 6 0 10 5 10 10 0 6 -4 10 -10 10 -5 0
-10 -4 -10 -10z"/>
<path d="M6082 2661 c-19 -11 1 -27 53 -41 28 -7 57 -19 65 -25 8 -7 25 -16
38 -20 25 -7 78 2 68 12 -3 3 -1 12 6 20 8 11 7 17 -8 28 -24 17 -96 28 -133
20 -15 -3 -39 -2 -53 4 -13 5 -30 6 -36 2z"/>
<path d="M2856 2625 c4 -8 8 -15 10 -15 2 0 4 7 4 15 0 8 -4 15 -10 15 -5 0
-7 -7 -4 -15z"/>
<path d="M3841 2533 c0 -25 1 -26 9 -8 12 27 12 35 0 35 -5 0 -10 -12 -9 -27z"/>
<path d="M2726 2353 c-6 -14 -5 -15 5 -6 7 7 10 15 7 18 -3 3 -9 -2 -12 -12z"/>
<path d="M2907 2099 c7 -7 15 -10 18 -7 3 3 -2 9 -12 12 -14 6 -15 5 -6 -5z"/>
<path d="M3635 2080 c-3 -5 -2 -10 4 -10 5 0 13 5 16 10 3 6 2 10 -4 10 -5 0
-13 -4 -16 -10z"/>
<path d="M2886 2069 c2 -4 0 -9 -6 -11 -6 -2 7 -8 27 -15 35 -11 36 -10 18 4
-19 15 -19 15 7 11 15 -3 25 -2 23 2 -3 4 -20 10 -39 12 -19 2 -33 1 -30 -3z"/>
<path d="M3583 2053 c-44 -6 -42 -19 2 -21 25 -1 35 3 35 13 0 8 -1 14 -2 13
-2 0 -18 -3 -35 -5z"/>
<path d="M3520 2029 c0 -5 5 -7 10 -4 6 3 10 8 10 11 0 2 -4 4 -10 4 -5 0 -10
-5 -10 -11z"/>
<path d="M6454 2025 c25 -19 46 -19 46 0 0 10 -10 15 -32 15 -31 -1 -32 -1
-14 -15z"/>
<path d="M65 2019 c-4 -6 -20 -8 -38 -4 l-32 6 25 -14 c14 -8 29 -10 35 -5 5
4 23 8 40 9 16 0 39 4 50 9 15 6 8 9 -27 9 -26 1 -50 -4 -53 -10z"/>
<path d="M3566 2011 c-4 -6 -1 -11 6 -11 7 0 0 -7 -16 -15 -15 -8 -33 -12 -39
-8 -6 3 -7 1 -3 -5 5 -8 -4 -12 -26 -13 -31 -1 -31 -2 -8 -9 l25 -7 -30 -5
c-28 -5 -27 -5 8 -7 26 -1 37 3 37 13 0 8 10 18 22 22 12 3 35 15 52 26 17 11
22 17 12 14 -11 -4 -23 -2 -26 5 -6 8 -9 8 -14 0z"/>
<path d="M435 2000 c-3 -5 4 -14 17 -19 25 -9 66 -1 70 14 4 14 -78 19 -87 5z"/>
<path d="M3500 1999 c0 -11 21 -11 39 0 9 6 5 9 -13 9 -14 0 -26 -4 -26 -9z"/>
<path d="M5600 1967 c-23 -11 -21 -12 29 -15 30 -2 66 0 80 4 24 6 25 7 6 14
-29 12 -86 11 -115 -3z"/>
<path d="M6093 1913 c-27 -10 -11 -23 29 -23 39 0 40 1 22 15 -20 15 -31 17
-51 8z"/>
<path d="M1048 1863 c6 -2 18 -2 25 0 6 3 1 5 -13 5 -14 0 -19 -2 -12 -5z"/>
<path d="M3248 1863 c0 -5 -2 -15 -2 -23 -1 -10 -11 -15 -29 -15 -19 1 -26 -3
-22 -13 3 -9 -1 -12 -14 -7 -21 6 -38 -10 -21 -20 6 -4 8 -11 4 -16 -4 -7 8
-8 33 -3 49 9 58 14 42 25 -11 7 -9 10 8 15 12 3 19 12 17 19 -3 7 -1 16 5 20
6 3 11 10 11 16 0 11 -29 12 -32 2z"/>
<path d="M3005 1840 c-3 -5 -2 -10 4 -10 5 0 13 5 16 10 3 6 2 10 -4 10 -5 0
-13 -4 -16 -10z"/>
<path d="M1260 1834 c0 -3 6 -12 14 -20 11 -10 15 -11 19 -1 3 9 8 9 20 -2 10
-8 17 -9 17 -3 0 6 -3 13 -7 15 -16 9 -63 17 -63 11z"/>
<path d="M6395 1773 c-23 -6 -45 -22 -45 -33 0 -4 26 -12 58 -19 31 -7 65 -15
75 -17 14 -4 17 1 17 29 0 45 -33 57 -105 40z"/>
<path d="M3240 1751 c0 -4 -25 -8 -56 -7 -30 0 -58 -4 -62 -9 -4 -6 -19 -16
-34 -24 -15 -8 -24 -19 -21 -24 4 -6 0 -8 -11 -4 -10 4 -15 3 -11 -4 4 -5 15
-7 26 -4 11 4 19 2 19 -4 0 -6 7 -11 15 -11 8 0 15 -3 15 -6 0 -3 -7 -12 -15
-20 -14 -15 -20 -11 -16 10 1 5 -4 4 -12 -2 -15 -12 -21 -62 -8 -62 4 0 17 -9
30 -21 14 -13 22 -16 20 -8 -3 24 1 39 9 39 4 0 8 -10 9 -21 2 -27 12 -37 22
-21 4 7 22 11 42 10 31 -3 34 -1 34 25 -1 19 4 27 17 27 21 0 33 17 16 23 -17
5 8 37 28 37 11 0 12 4 2 19 -9 15 -16 17 -29 10 -10 -5 -48 -9 -86 -8 -37 0
-62 3 -55 6 6 2 12 11 12 19 0 8 10 14 23 14 21 -1 22 -1 3 -15 -19 -15 -19
-15 2 -15 12 0 22 5 22 10 0 6 5 10 11 10 5 0 7 -4 4 -10 -3 -6 5 -10 18 -10
24 0 37 16 37 46 0 8 -4 14 -10 14 -5 0 -10 -4 -10 -9z m-55 -81 c3 -5 1 -10
-4 -10 -6 0 -11 -7 -11 -15 0 -13 -3 -13 -20 -3 -11 7 -20 18 -20 25 0 15 46
17 55 3z"/>
<path d="M6093 1753 c9 -2 23 -2 30 0 6 3 -1 5 -18 5 -16 0 -22 -2 -12 -5z"/>
<path d="M12 1693 c2 -17 10 -27 23 -30 96 -15 157 -22 195 -22 l45 1 -44 14
c-25 8 -47 18 -50 22 -11 15 -96 33 -129 27 -22 -3 -31 -2 -27 5 3 5 1 10 -5
10 -6 0 -10 -12 -8 -27z"/>
<path d="M1074 1665 c11 -8 25 -15 30 -16 6 0 18 -2 26 -3 23 -5 62 12 55 24
-3 5 -34 10 -68 10 -57 -1 -60 -2 -43 -15z"/>
<path d="M813 1663 c15 -2 37 -2 50 0 12 2 0 4 -28 4 -27 0 -38 -2 -22 -4z"/>
<path d="M905 1660 c3 -5 17 -10 30 -10 13 0 27 5 30 10 4 6 -8 10 -30 10 -22
0 -34 -4 -30 -10z"/>
<path d="M2685 1649 c5 -13 3 -19 -3 -15 -5 3 -12 -5 -14 -19 -3 -14 -1 -25 3
-25 5 0 6 -14 2 -30 -5 -29 -4 -30 25 -28 22 2 34 10 48 35 11 21 23 32 31 29
8 -3 11 -1 8 4 -3 6 -15 10 -26 10 -10 0 -19 5 -19 10 0 6 -7 10 -16 10 -9 0
-18 9 -21 20 -3 11 -10 20 -15 20 -5 0 -6 -10 -3 -21z m55 -49 c0 -5 -10 -10
-22 -10 -19 0 -20 2 -8 10 19 13 30 13 30 0z"/>
<path d="M5777 1655 c-114 -21 -102 -39 31 -51 89 -7 180 0 194 14 6 6 -2 18
-18 31 -31 24 -95 26 -207 6z"/>
<path d="M405 1646 c-11 -8 -35 -16 -52 -16 -18 0 -33 -3 -33 -6 0 -13 76 -74
95 -75 59 -6 104 13 75 31 -8 5 -37 10 -63 10 -32 0 -46 4 -42 11 5 7 32 8 79
5 49 -4 80 -2 101 7 29 13 29 14 9 25 -12 6 -50 14 -85 17 -50 5 -68 3 -84 -9z"/>
<path d="M2838 1630 c12 -5 22 -14 22 -20 0 -5 5 -10 10 -10 20 0 9 28 -12 34
-34 9 -46 6 -20 -4z"/>
<path d="M4196 1589 c6 -11 54 -12 54 -1 0 4 -13 7 -30 8 -16 1 -27 -3 -24 -7z"/>
<path d="M3190 1540 c0 -5 -9 -10 -20 -10 -23 0 -25 -6 -7 -24 20 -20 47 -27
47 -12 0 8 4 16 8 18 4 2 0 11 -10 21 -10 9 -18 13 -18 7z"/>
<path d="M4038 1528 c6 -6 18 -8 28 -6 14 3 12 5 -9 10 -19 3 -25 2 -19 -4z"/>
<path d="M3370 1470 c0 -5 5 -10 10 -10 6 0 10 5 10 10 0 6 -4 10 -10 10 -5 0
-10 -4 -10 -10z"/>
<path d="M2906 1443 c-3 -3 -6 -17 -6 -30 0 -12 -4 -23 -10 -23 -5 0 -10 -7
-10 -15 0 -8 4 -15 8 -15 5 0 22 -29 38 -65 16 -36 35 -65 42 -65 8 0 10 -5 6
-12 -5 -8 -2 -9 10 -5 10 4 23 7 29 7 8 0 7 4 -1 12 -18 18 -15 27 7 21 10 -3
22 0 25 6 7 11 -4 14 -34 12 -20 -1 -41 13 -44 30 -5 31 -19 65 -33 81 -9 10
-13 26 -10 38 5 20 -5 35 -17 23z"/>
<path d="M6043 1434 c-18 -9 -33 -20 -33 -25 0 -12 147 -11 155 0 3 5 1 12 -5
16 -6 4 -8 11 -5 16 10 15 -78 10 -112 -7z"/>
<path d="M3960 1386 c0 -2 9 -6 20 -9 11 -3 20 -1 20 4 0 5 -9 9 -20 9 -11 0
-20 -2 -20 -4z"/>
<path d="M4288 1373 c7 -3 16 -2 19 1 4 3 -2 6 -13 5 -11 0 -14 -3 -6 -6z"/>
<path d="M5390 1345 c39 -15 146 -20 154 -6 7 10 -68 21 -138 20 l-51 -1 35
-13z"/>
<path d="M3792 1339 c2 -7 10 -15 17 -17 8 -3 12 1 9 9 -2 7 -10 15 -17 17 -8
3 -12 -1 -9 -9z"/>
<path d="M1445 1320 c3 -5 27 -9 53 -9 42 1 44 2 17 9 -45 11 -77 11 -70 0z"/>
<path d="M2736 1318 c-10 -31 -2 -44 27 -46 29 -2 30 -2 14 16 -9 10 -17 24
-17 30 0 16 -20 15 -24 0z"/>
<path d="M25 1310 c-7 -12 3 -17 54 -25 30 -5 39 -10 30 -16 -11 -7 -10 -9 4
-9 9 0 17 -6 17 -14 0 -22 83 -40 148 -31 31 4 102 9 156 11 55 2 101 6 104 9
14 14 -19 17 -146 16 -145 -2 -222 11 -174 30 44 17 21 27 -54 24 -41 -2 -88
1 -104 5 -17 5 -32 5 -35 0z"/>
<path d="M535 1311 c-3 -5 -1 -12 4 -15 13 -8 71 5 71 15 0 12 -67 11 -75 0z"/>
<path d="M2180 1302 c0 -11 98 -28 107 -18 12 11 -7 19 -57 24 -31 3 -50 1
-50 -6z"/>
<path d="M3798 1293 c6 -2 18 -2 25 0 6 3 1 5 -13 5 -14 0 -19 -2 -12 -5z"/>
<path d="M3952 1292 c-24 -16 10 -28 68 -22 38 4 49 7 35 12 -39 13 -90 18
-103 10z"/>
<path d="M1234 1278 c-8 -12 43 -21 62 -10 14 8 10 10 -20 14 -21 2 -39 1 -42
-4z"/>
<path d="M3371 1276 c-13 -7 -19 -16 -14 -19 6 -4 21 2 33 13 26 23 17 26 -19
6z"/>
<path d="M5400 1279 c-61 -8 -35 -11 87 -9 58 1 110 -3 122 -10 29 -15 227
-18 242 -3 18 18 -14 27 -86 26 -84 -2 -168 -2 -250 1 -38 1 -90 -1 -115 -5z"/>
<path d="M751 1275 c3 -2 23 -6 45 -7 32 -3 40 -8 42 -26 3 -21 7 -22 130 -22
117 0 167 9 150 26 -4 3 -60 8 -125 11 -65 3 -125 9 -135 14 -17 9 -115 13
-107 4z"/>
<path d="M3118 1253 c7 -3 16 -2 19 1 4 3 -2 6 -13 5 -11 0 -14 -3 -6 -6z"/>
<path d="M4288 1253 c7 -3 16 -2 19 1 4 3 -2 6 -13 5 -11 0 -14 -3 -6 -6z"/>
<path d="M6254 1243 c9 -9 96 -33 149 -40 62 -9 42 11 -30 30 -70 18 -132 23
-119 10z"/>
<path d="M7 1203 c-19 -18 -3 -31 47 -37 39 -5 55 -12 58 -24 4 -12 24 -21 66
-30 39 -8 62 -18 62 -26 0 -9 24 -17 77 -24 73 -9 79 -8 94 10 15 20 24 20
170 14 85 -3 183 -8 219 -10 61 -5 62 -4 14 3 -28 5 -66 13 -85 20 -41 13
-367 22 -375 10 -7 -12 -61 -11 -69 1 -4 6 10 10 34 10 31 0 41 4 41 16 0 13
-7 15 -28 11 -37 -7 -229 26 -269 47 -35 18 -46 19 -56 9z"/>
<path d="M1360 1202 c0 -8 232 -43 275 -42 73 2 -171 47 -267 50 -5 0 -8 -4
-8 -8z"/>
<path d="M2303 1190 c-1 -13 4 -20 17 -20 10 0 22 -4 25 -10 3 -5 14 -10 23
-9 13 0 12 3 -5 11 -13 6 -23 15 -23 20 0 5 10 13 23 18 19 7 16 9 -18 9 -34
1 -41 -2 -42 -19z"/>
<path d="M2828 1194 c-5 -4 -8 -16 -8 -28 0 -14 3 -17 11 -9 6 6 9 19 7 28 -1
9 -6 13 -10 9z"/>
<path d="M4333 1193 c9 -2 25 -2 35 0 9 3 1 5 -18 5 -19 0 -27 -2 -17 -5z"/>
<path d="M4615 1190 c17 -4 57 -8 90 -8 57 0 58 1 20 9 -22 4 -62 8 -90 7 -43
0 -46 -1 -20 -8z"/>
<path d="M2960 1170 c0 -5 4 -10 9 -10 6 0 13 5 16 10 3 6 -1 10 -9 10 -9 0
-16 -4 -16 -10z"/>
<path d="M1000 1148 c-14 -5 -59 -14 -100 -18 -69 -7 -64 -8 55 -7 72 0 139 3
149 7 17 6 15 8 -14 18 -39 14 -57 14 -90 0z"/>
<path d="M5522 1155 c7 -7 132 -33 166 -34 18 -1 14 17 -5 23 -33 9 -168 19
-161 11z"/>
<path d="M5058 1133 c17 -2 32 -8 32 -14 0 -11 50 -12 68 0 19 12 -20 21 -83
19 -36 -1 -41 -2 -17 -5z"/>
<path d="M1346 1122 c-8 -14 15 -21 39 -11 11 4 15 8 8 8 -6 1 -18 4 -26 7 -8
3 -18 1 -21 -4z"/>
<path d="M1430 1110 c20 -13 43 -13 35 0 -3 6 -16 10 -28 10 -18 0 -19 -2 -7
-10z"/>
<path d="M1293 1103 c-12 -2 -24 -11 -27 -19 -4 -11 4 -14 39 -14 49 0 66 14
36 29 -11 6 -21 10 -23 10 -2 -1 -13 -4 -25 -6z"/>
<path d="M4910 1100 c0 -6 27 -10 63 -10 44 0 58 3 47 10 -20 13 -110 13 -110
0z"/>
<path d="M1967 1088 c-17 -10 7 -16 106 -23 52 -4 87 -2 87 3 0 18 -168 36
-193 20z"/>
<path d="M4410 1090 c-7 -5 -3 -10 12 -13 33 -10 60 -8 54 2 -8 12 -52 19 -66
11z"/>
<path d="M1526 1071 c-3 -5 1 -11 9 -15 15 -6 29 7 18 18 -9 9 -21 8 -27 -3z"/>
<path d="M4547 1074 c-11 -12 3 -24 29 -24 45 0 24 -19 -28 -26 -29 -4 -47 -9
-40 -11 6 -3 10 -9 6 -14 -3 -5 2 -9 11 -9 10 0 13 5 9 11 -5 9 12 10 67 4
102 -12 201 -7 218 10 13 13 10 17 -22 30 -27 11 -43 13 -57 5 -28 -15 -64
-12 -120 10 -55 22 -63 23 -73 14z"/>
<path d="M6023 1072 c-12 -2 -24 -10 -27 -18 -4 -12 11 -14 92 -13 53 0 115 4
137 8 36 7 37 8 15 14 -31 7 -187 14 -217 9z"/>
<path d="M2203 1043 c-13 -2 -23 -8 -23 -13 0 -14 42 -20 145 -20 55 0 127 -7
160 -15 69 -17 105 -19 105 -6 0 18 -59 31 -180 41 -69 6 -138 12 -155 14 -16
2 -40 2 -52 -1z"/>
<path d="M997 1032 c-16 -2 -37 -11 -48 -20 -16 -14 -17 -17 -4 -22 20 -7 385
18 408 28 10 4 -47 7 -125 7 -79 0 -156 3 -173 6 -16 3 -43 3 -58 1z"/>
<path d="M1745 1030 c-8 -13 20 -24 41 -16 20 8 9 26 -16 26 -10 0 -22 -5 -25
-10z"/>
<path d="M4905 1030 c-23 -6 -15 -8 38 -9 39 -1 67 3 67 9 0 11 -60 11 -105 0z"/>
<path d="M7 1013 c7 -2 19 -2 26 0 6 3 1 5 -13 5 -14 0 -19 -2 -13 -5z"/>
<path d="M2040 996 c0 -8 48 -12 66 -5 13 5 7 8 -23 8 -24 1 -43 -1 -43 -3z"/>
<path d="M2140 990 c20 -13 63 -13 55 0 -3 6 -21 10 -38 10 -24 0 -28 -3 -17
-10z"/>
<path d="M4017 993 c-7 -6 21 -32 36 -33 14 0 7 28 -9 34 -19 7 -19 7 -27 -1z"/>
<path d="M5110 990 c20 -13 60 -13 60 0 0 6 -17 10 -37 10 -28 0 -34 -3 -23
-10z"/>
<path d="M4235 975 c-25 -11 -27 -14 -12 -20 9 -4 32 -4 51 -1 18 4 46 1 62
-5 16 -6 47 -12 69 -14 93 -7 154 -18 149 -27 -3 -5 -16 -7 -28 -5 -11 3 -41
1 -66 -3 -31 -6 -6 -8 83 -5 71 2 131 6 134 9 4 3 -1 6 -10 6 -9 0 -17 6 -17
14 0 15 -62 26 -154 26 -36 0 -70 6 -81 14 -29 20 -143 27 -180 11z"/>
<path d="M6110 980 c0 -14 29 -26 95 -40 33 -7 69 -16 80 -20 31 -13 157 -21
190 -11 25 6 15 9 -55 15 -47 4 -101 12 -120 19 -35 12 -35 12 35 17 64 5 68
7 43 17 -32 14 -268 17 -268 3z"/>
<path d="M5839 973 c-1 -5 -1 -10 -1 -13 0 -3 -14 -6 -31 -7 -18 -1 -48 -9
-67 -17 -19 -8 -44 -17 -55 -21 -20 -7 -20 -7 0 -15 34 -13 375 -22 375 -10 0
15 -39 28 -118 40 -37 6 -71 16 -77 22 -7 7 -4 9 10 5 63 -18 77 -19 86 -6 16
26 9 29 -56 29 -36 0 -66 -3 -66 -7z"/>
<path d="M5220 961 c-9 -6 -89 -8 -210 -5 -173 4 -192 3 -165 -9 22 -11 81
-15 230 -16 198 -1 261 -6 270 -21 3 -5 20 -4 38 0 17 5 90 14 161 20 72 6
136 15 144 19 8 4 -39 7 -105 7 -65 -1 -170 3 -233 7 -73 5 -120 4 -130 -2z"/>
<path d="M6465 950 c27 -12 35 -12 35 0 0 6 -12 10 -27 9 -25 0 -26 -1 -8 -9z"/>
<path d="M1265 910 c-3 -5 -1 -10 4 -10 6 0 11 5 11 10 0 6 -2 10 -4 10 -3 0
-8 -4 -11 -10z"/>
<path d="M1 878 c0 -13 3 -18 5 -11 4 8 20 10 47 7 114 -14 187 -26 232 -39
l50 -15 -55 6 c-30 3 -66 8 -79 11 -15 4 -22 2 -18 -4 4 -6 26 -13 51 -16 24
-4 61 -15 83 -26 37 -20 226 -50 323 -52 l45 -1 -40 -10 c-22 -5 -54 -7 -71
-5 -17 3 -37 1 -45 -4 -9 -5 17 -9 72 -9 53 0 90 5 97 12 7 7 32 11 58 9 62
-4 131 8 113 20 -9 5 19 9 71 9 48 0 91 5 97 11 5 5 64 14 129 19 151 12 203
12 186 1 -9 -5 -1 -10 25 -14 21 -4 53 -10 72 -13 32 -7 33 -6 22 15 -11 20
-9 21 26 21 33 0 87 11 133 26 26 9 -10 23 -55 22 -23 0 -56 3 -74 7 -22 5
-31 4 -27 -3 13 -21 -50 -28 -348 -37 -90 -2 -164 -9 -170 -15 -5 -5 -44 -10
-86 -10 -90 0 -152 -9 -144 -21 3 -5 -39 -9 -93 -8 -54 0 -92 3 -85 6 21 8 13
23 -13 23 -13 0 -46 7 -72 16 -26 9 -55 18 -63 19 -26 3 -50 17 -45 26 3 4 88
8 188 8 282 0 291 1 284 7 -3 3 -141 7 -306 9 -183 3 -308 8 -320 15 -11 5
-60 10 -110 10 -88 0 -91 -1 -90 -22z m417 -85 c-10 -2 -26 -2 -35 0 -10 3 -2
5 17 5 19 0 27 -2 18 -5z m485 -20 c-7 -2 -21 -2 -30 0 -10 3 -4 5 12 5 17 0
24 -2 18 -5z m-116 -29 c-3 -3 -12 -4 -19 -1 -8 3 -5 6 6 6 11 1 17 -2 13 -5z"/>
<path d="M328 893 c6 -2 18 -2 25 0 6 3 1 5 -13 5 -14 0 -19 -2 -12 -5z"/>
<path d="M4736 891 c-7 -11 18 -21 54 -21 40 0 46 16 9 24 -43 8 -57 8 -63 -3z"/>
<path d="M5435 886 c-41 -10 -46 -14 -30 -20 32 -13 97 -24 112 -19 18 7 16
33 -3 33 -8 0 -12 5 -9 10 7 12 -4 11 -70 -4z"/>
<path d="M6160 890 c0 -5 19 -10 43 -9 32 0 37 2 22 9 -28 12 -65 12 -65 0z"/>
<path d="M900 869 c-41 -5 -39 -6 25 -8 164 -6 205 -6 205 1 0 16 -134 20
-230 7z"/>
<path d="M1825 870 c-4 -6 6 -10 24 -10 16 0 33 5 36 10 4 6 -6 10 -24 10 -16
0 -33 -4 -36 -10z"/>
<path d="M1913 873 c9 -2 25 -2 35 0 9 3 1 5 -18 5 -19 0 -27 -2 -17 -5z"/>
<path d="M1998 873 c12 -2 32 -2 45 0 12 2 2 4 -23 4 -25 0 -35 -2 -22 -4z"/>
<path d="M4853 873 c-27 -10 -11 -23 30 -23 39 1 41 2 23 15 -20 15 -32 17
-53 8z"/>
<path d="M1404 858 c-3 -4 6 -8 20 -8 14 0 26 4 26 8 0 4 -9 8 -21 8 -11 0
-23 -4 -25 -8z"/>
<path d="M5218 853 c12 -2 30 -2 40 0 9 3 -1 5 -23 4 -22 0 -30 -2 -17 -4z"/>
<path d="M2 825 c0 -16 2 -22 5 -12 2 9 2 23 0 30 -3 6 -5 -1 -5 -18z"/>
<path d="M1703 839 c11 -7 23 -7 35 0 14 9 11 10 -18 10 -29 0 -32 -1 -17 -10z"/>
<path d="M5028 833 c12 -2 32 -2 45 0 12 2 2 4 -23 4 -25 0 -35 -2 -22 -4z"/>
<path d="M5190 823 c14 -2 39 -8 55 -13 53 -17 304 -50 373 -50 79 1 66 14
-23 25 -33 3 -104 15 -158 26 -57 11 -135 18 -185 18 -48 -1 -76 -4 -62 -6z"/>
<path d="M6380 803 c-58 -9 -112 -18 -120 -21 -8 -3 -19 -4 -23 -3 -5 1 -6 -3
-2 -9 3 -5 23 -10 44 -10 21 0 60 -7 87 -15 61 -19 63 -19 36 1 -31 21 -21 31
43 39 38 4 55 11 55 21 0 8 -3 13 -7 13 -5 -1 -55 -8 -113 -16z"/>
<path d="M72 792 c-57 -18 -72 -39 -19 -27 17 3 49 9 70 12 39 6 48 17 21 27
-9 3 -16 6 -17 5 -1 0 -26 -8 -55 -17z"/>
<path d="M3 750 c0 -25 2 -35 4 -22 2 12 2 32 0 45 -2 12 -4 2 -4 -23z"/>
<path d="M4251 786 c2 -2 49 -6 104 -9 59 -3 88 -2 70 2 -30 9 -182 14 -174 7z"/>
<path d="M653 773 c9 -2 25 -2 35 0 9 3 1 5 -18 5 -19 0 -27 -2 -17 -5z"/>
<path d="M4043 773 c9 -2 23 -2 30 0 6 3 -1 5 -18 5 -16 0 -22 -2 -12 -5z"/>
<path d="M1270 759 c-30 -5 -26 -7 23 -8 31 0 57 1 57 3 0 8 -47 11 -80 5z"/>
<path d="M5745 760 c-3 -5 -1 -10 4 -10 6 0 11 5 11 10 0 6 -2 10 -4 10 -3 0
-8 -4 -11 -10z"/>
<path d="M185 720 c4 -6 11 -8 16 -5 14 9 11 15 -7 15 -8 0 -12 -5 -9 -10z"/>
<path d="M1135 721 c-41 -6 -45 -8 -25 -13 45 -12 293 -21 286 -10 -5 9 -55
17 -166 26 -25 2 -67 1 -95 -3z"/>
<path d="M2060 721 c0 -9 49 -21 84 -21 13 1 7 6 -19 15 -46 17 -65 19 -65 6z"/>
<path d="M1920 712 c-14 -2 -39 -10 -57 -18 -17 -8 -39 -15 -50 -15 -36 -3 93
-17 152 -17 l60 1 -60 12 -60 12 35 9 c37 11 23 22 -20 16z"/>
<path d="M2850 710 c0 -5 16 -10 35 -10 19 0 35 5 35 10 0 6 -16 10 -35 10
-19 0 -35 -4 -35 -10z"/>
<path d="M6448 713 c12 -2 30 -2 40 0 9 3 -1 5 -23 4 -22 0 -30 -2 -17 -4z"/>
<path d="M2620 701 c-8 -5 -11 -13 -8 -16 11 -12 149 -8 161 4 8 8 5 11 -13
11 -14 0 -47 3 -75 6 -27 3 -57 0 -65 -5z"/>
<path d="M4230 700 c-11 -7 -4 -10 25 -10 29 0 36 3 25 10 -8 5 -19 10 -25 10
-5 0 -17 -5 -25 -10z"/>
<path d="M5218 701 c18 -5 35 -10 37 -12 2 -2 -51 -4 -118 -5 -67 0 -138 -5
-157 -12 -19 -6 -89 -13 -155 -17 -217 -11 -236 -24 -30 -20 105 2 192 4 195
5 3 0 -2 5 -10 10 -11 8 -5 11 25 11 256 4 555 15 560 20 3 4 -47 10 -112 13
-65 4 -152 8 -193 11 -53 3 -65 2 -42 -4z"/>
<path d="M6360 700 c-8 -5 -85 -9 -170 -9 -144 0 -290 -14 -290 -30 0 -3 26
-6 58 -7 31 0 155 -8 275 -17 287 -22 267 -23 267 13 0 26 -4 30 -27 30 -45 0
-77 11 -61 21 9 6 5 9 -12 9 -14 0 -32 -5 -40 -10z"/>
<path d="M3 650 c1 -30 2 -45 5 -32 4 26 -2 26 96 7 70 -13 85 -13 130 0 28 8
69 19 91 24 l40 10 -40 -4 c-119 -13 -275 -17 -275 -7 0 6 8 13 18 15 9 3 0 5
-20 6 -26 1 -38 6 -41 19 -2 9 -4 -8 -4 -38z"/>
<path d="M1463 693 c15 -2 37 -2 50 0 12 2 0 4 -28 4 -27 0 -38 -2 -22 -4z"/>
<path d="M4330 690 c-11 -7 -4 -10 25 -10 29 0 36 3 25 10 -8 5 -19 10 -25 10
-5 0 -17 -5 -25 -10z"/>
<path d="M1658 683 c7 -3 16 -2 19 1 4 3 -2 6 -13 5 -11 0 -14 -3 -6 -6z"/>
<path d="M2380 679 c25 -6 83 -12 130 -14 81 -4 83 -4 45 9 -22 7 -80 13 -130
13 -81 1 -86 0 -45 -8z"/>
<path d="M5648 679 c-23 -5 -23 -5 2 -10 14 -3 57 -2 95 1 l70 6 -72 4 c-40 3
-83 2 -95 -1z"/>
<path d="M1085 670 c4 -6 11 -8 16 -5 14 9 11 15 -7 15 -8 0 -12 -5 -9 -10z"/>
<path d="M1245 668 c60 -5 109 -5 125 1 18 7 -12 9 -100 9 l-125 -1 100 -9z"/>
<path d="M3683 673 c15 -2 39 -2 55 0 15 2 2 4 -28 4 -30 0 -43 -2 -27 -4z"/>
<path d="M3822 675 c11 -12 142 -24 153 -14 5 5 -10 9 -35 9 -25 0 -63 3 -85
7 -22 3 -37 2 -33 -2z"/>
<path d="M2221 666 c2 -2 49 -6 104 -9 70 -4 86 -3 55 3 -45 9 -167 13 -159 6z"/>
<path d="M4075 660 c3 -5 22 -10 41 -10 21 0 33 4 29 10 -3 6 -22 10 -41 10
-21 0 -33 -4 -29 -10z"/>
<path d="M478 653 c7 -3 16 -2 19 1 4 3 -2 6 -13 5 -11 0 -14 -3 -6 -6z"/>
<path d="M915 650 c-23 -6 -13 -8 40 -9 49 0 65 2 55 9 -17 11 -51 11 -95 0z"/>
<path d="M710 640 c-10 -6 -2 -7 25 -3 49 7 58 13 19 13 -16 0 -36 -5 -44 -10z"/>
<path d="M1868 643 c6 -2 18 -2 25 0 6 3 1 5 -13 5 -14 0 -19 -2 -12 -5z"/>
<path d="M3603 643 c9 -2 23 -2 30 0 6 3 -1 5 -18 5 -16 0 -22 -2 -12 -5z"/>
<path d="M513 633 c9 -2 23 -2 30 0 6 3 -1 5 -18 5 -16 0 -22 -2 -12 -5z"/>
<path d="M615 630 l-30 -8 37 -1 c20 0 40 4 43 9 7 11 -6 11 -50 0z"/>
<path d="M1500 630 c-12 -3 -21 -9 -20 -15 1 -13 160 -9 173 4 10 10 -118 20
-153 11z"/>
<path d="M4075 630 c-17 -7 -15 -9 12 -9 17 -1 35 4 38 9 7 12 -22 12 -50 0z"/>
<path d="M4176 632 c-2 -4 11 -6 30 -4 19 2 34 6 34 8 0 8 -59 4 -64 -4z"/>
<path d="M5465 630 c-3 -5 -18 -11 -33 -11 -15 -1 7 -5 48 -10 72 -7 350 -2
360 8 2 2 -2 8 -10 13 -20 13 -357 13 -365 0z"/>
<path d="M1165 620 c19 -8 163 -14 154 -6 -2 2 -42 6 -89 9 -51 3 -77 2 -65
-3z"/>
<path d="M2728 623 c6 -2 18 -2 25 0 6 3 1 5 -13 5 -14 0 -19 -2 -12 -5z"/>
<path d="M5265 620 c24 -10 61 -13 52 -3 -4 3 -22 7 -39 9 -26 2 -29 1 -13 -6z"/>
<path d="M600 601 c-18 -5 -21 -9 -10 -13 20 -7 80 2 80 13 0 10 -33 10 -70 0z"/>
<path d="M697 603 c-14 -14 -6 -20 19 -15 19 3 22 7 12 13 -16 11 -23 11 -31
2z"/>
<path d="M2253 603 c9 -2 25 -2 35 0 9 3 1 5 -18 5 -19 0 -27 -2 -17 -5z"/>
<path d="M3000 600 c-33 -7 -32 -7 15 -9 28 0 57 4 65 9 18 12 -25 12 -80 0z"/>
<path d="M3578 603 c14 -3 20 -9 16 -16 -4 -7 -4 -9 1 -5 4 4 13 4 19 -1 6 -5
65 -11 131 -14 l120 -6 -102 14 c-56 8 -119 19 -140 24 -21 6 -45 10 -53 10
-8 -1 -5 -4 8 -6z"/>
<path d="M6304 599 c-3 -5 -2 -9 3 -10 75 -4 105 -3 109 3 3 4 -3 9 -13 9 -69
6 -94 5 -99 -2z"/>
<path d="M908 593 c12 -2 32 -2 45 0 12 2 2 4 -23 4 -25 0 -35 -2 -22 -4z"/>
<path d="M1295 590 c-38 -4 -63 -7 -55 -8 9 -1 33 -11 55 -22 22 -11 53 -20
70 -19 24 0 18 3 -24 15 -30 8 -57 17 -60 19 -2 3 27 5 65 6 48 0 63 3 49 9
-11 5 -22 8 -25 8 -3 -1 -36 -4 -75 -8z"/>
<path d="M1960 590 l-75 -6 85 -1 c47 -1 126 2 175 6 l90 8 -100 0 c-55 -1
-134 -3 -175 -7z"/>
<path d="M2660 590 c-63 -14 -182 -22 -176 -12 8 13 -60 -3 -79 -18 -8 -7 -15
-15 -15 -19 0 -11 344 0 352 12 3 6 24 11 45 12 21 0 58 2 83 4 l45 3 -40 9
c-22 4 -59 6 -81 3 -25 -4 -44 -2 -48 5 -8 12 -34 13 -86 1z"/>
<path d="M3225 589 c-4 -6 -5 -12 -2 -15 2 -3 7 2 10 11 7 17 1 20 -8 4z"/>
<path d="M4915 591 c-22 -9 57 -21 138 -21 49 0 63 13 25 24 -32 8 -139 6
-163 -3z"/>
<path d="M118 583 c7 -3 16 -2 19 1 4 3 -2 6 -13 5 -11 0 -14 -3 -6 -6z"/>
<path d="M1462 585 c3 -3 59 -10 124 -15 65 -6 134 -15 153 -20 20 -6 81 -12
136 -15 81 -3 91 -2 55 6 -25 5 -83 13 -130 18 -47 5 -116 14 -155 20 -74 11
-192 15 -183 6z"/>
<path d="M1778 583 c12 -2 32 -2 45 0 12 2 2 4 -23 4 -25 0 -35 -2 -22 -4z"/>
<path d="M779 569 c-14 -8 15 -14 126 -25 112 -11 139 -11 159 -1 10 5 14 13
10 17 -12 11 -279 19 -295 9z"/>
<path d="M4205 570 l-40 -7 43 -2 c23 0 42 4 42 9 0 6 -1 9 -2 9 -2 -1 -21 -5
-43 -9z"/>
<path d="M4321 576 c2 -2 33 -6 69 -9 40 -4 57 -2 45 3 -19 8 -123 14 -114 6z"/>
<path d="M5338 573 c7 -3 16 -2 19 1 4 3 -2 6 -13 5 -11 0 -14 -3 -6 -6z"/>
<path d="M5370 570 c0 -6 17 -10 37 -10 43 0 41 5 -4 13 -19 4 -33 2 -33 -3z"/>
<path d="M252 549 c31 -14 45 -26 41 -35 -3 -8 0 -14 7 -14 6 0 18 -7 26 -15
14 -13 9 -15 -43 -16 -90 -3 -127 2 -136 16 -4 7 -20 16 -36 20 -20 4 -28 11
-24 21 3 9 -2 14 -17 14 -33 0 -19 -22 30 -48 25 -12 47 -27 48 -32 5 -14 180
-13 256 1 51 10 76 9 142 -5 45 -9 92 -16 105 -15 22 1 21 2 -6 10 -28 9 -124
27 -190 34 -55 7 -75 14 -117 39 l-43 26 54 0 c81 0 58 6 -49 14 l-95 6 47
-21z"/>
<path d="M4108 563 c7 -3 16 -2 19 1 4 3 -2 6 -13 5 -11 0 -14 -3 -6 -6z"/>
<path d="M1 544 c0 -11 3 -14 6 -6 3 7 2 16 -1 19 -3 4 -6 -2 -5 -13z"/>
<path d="M440 550 c0 -12 8 -12 35 0 18 8 17 9 -7 9 -16 1 -28 -3 -28 -9z"/>
<path d="M655 551 c-11 -5 -37 -6 -57 -3 -21 2 -38 0 -38 -5 0 -12 94 -35 98
-24 1 4 36 6 77 3 41 -2 75 -2 75 1 0 3 -14 13 -32 21 -33 17 -90 20 -123 7z"/>
<path d="M3938 553 c7 -3 16 -2 19 1 4 3 -2 6 -13 5 -11 0 -14 -3 -6 -6z"/>
<path d="M5479 544 c-6 -8 -29 -17 -51 -20 -21 -4 -37 -9 -35 -11 8 -8 107 10
123 22 15 11 15 12 -4 17 -12 4 -26 0 -33 -8z"/>
<path d="M1468 543 c6 -2 18 -2 25 0 6 3 1 5 -13 5 -14 0 -19 -2 -12 -5z"/>
<path d="M5403 543 c9 -2 23 -2 30 0 6 3 -1 5 -18 5 -16 0 -22 -2 -12 -5z"/>
<path d="M1430 531 c11 -8 -2 -11 -54 -11 -38 0 -66 -3 -63 -7 10 -10 198 -3
216 7 11 7 2 9 -31 10 -25 0 -55 3 -65 6 -15 5 -15 4 -3 -5z"/>
<path d="M4630 529 c0 -5 9 -9 20 -9 11 0 20 2 20 4 0 2 -9 6 -20 9 -11 3 -20
1 -20 -4z"/>
<path d="M2030 515 c49 -19 71 -19 46 0 -11 8 -34 15 -50 14 l-31 -1 35 -13z"/>
<path d="M3413 523 c15 -2 39 -2 55 0 15 2 2 4 -28 4 -30 0 -43 -2 -27 -4z"/>
<path d="M3538 523 c17 -2 47 -2 65 0 17 2 3 4 -33 4 -36 0 -50 -2 -32 -4z"/>
<path d="M3668 523 c7 -3 16 -2 19 1 4 3 -2 6 -13 5 -11 0 -14 -3 -6 -6z"/>
<path d="M5624 516 c-18 -14 -18 -15 6 -20 21 -5 152 -12 343 -18 45 -1 60
-11 35 -22 -22 -9 255 4 292 14 31 8 27 9 -30 8 -36 -1 -76 2 -90 6 -19 5 -21
5 -10 -3 11 -8 -2 -11 -50 -11 -39 0 -60 4 -52 9 18 11 -54 18 -230 20 -144 2
-163 5 -153 22 10 14 -39 11 -61 -5z"/>
<path d="M6048 523 c6 -2 18 -2 25 0 6 3 1 5 -13 5 -14 0 -19 -2 -12 -5z"/>
<path d="M6295 523 c17 -2 37 -6 45 -9 28 -10 160 -14 160 -5 0 13 -65 21
-155 19 -44 0 -66 -3 -50 -5z"/>
<path d="M1180 509 c0 -5 23 -9 52 -9 28 0 49 2 47 4 -9 8 -99 13 -99 5z"/>
<path d="M3710 511 c0 -8 65 -16 215 -25 l80 -5 -95 13 c-154 22 -200 26 -200
17z"/>
<path d="M2 490 c0 -14 2 -19 5 -12 2 6 2 18 0 25 -3 6 -5 1 -5 -13z"/>
<path d="M4490 500 c0 -5 17 -10 38 -10 27 0 33 3 22 10 -20 13 -60 13 -60 0z"/>
<path d="M4630 500 c-42 -7 -40 -7 25 -8 48 -1 65 1 55 8 -8 5 -19 9 -25 8 -5
0 -30 -4 -55 -8z"/>
<path d="M4905 501 c-85 -4 -148 -12 -160 -20 -18 -11 -16 -12 15 -6 19 3 62
8 95 10 46 3 52 2 25 -4 -33 -8 -31 -8 20 -9 30 -1 84 3 120 8 35 5 69 6 75 1
28 -21 211 -51 310 -51 61 0 51 12 -12 16 -27 2 -100 11 -163 21 -89 13 -108
19 -85 24 21 5 24 7 9 8 -12 0 -41 3 -65 5 -24 2 -107 1 -184 -3z"/>
<path d="M1330 490 l-75 -6 92 -2 c52 -1 94 2 98 8 4 6 -4 9 -17 8 -13 -1 -57
-4 -98 -8z"/>
<path d="M2100 490 c0 -6 28 -10 68 -9 62 1 64 2 27 10 -56 11 -95 11 -95 -1z"/>
<path d="M5378 493 c7 -3 16 -2 19 1 4 3 -2 6 -13 5 -11 0 -14 -3 -6 -6z"/>
<path d="M6218 493 c7 -3 16 -2 19 1 4 3 -2 6 -13 5 -11 0 -14 -3 -6 -6z"/>
<path d="M6268 493 c6 -2 18 -2 25 0 6 3 1 5 -13 5 -14 0 -19 -2 -12 -5z"/>
<path d="M1028 485 c-10 -10 -97 -17 -213 -17 -89 0 -101 -1 -65 -8 65 -12
214 -12 328 1 76 9 122 9 193 -1 52 -6 123 -14 159 -16 55 -4 62 -3 45 8 -11
7 -69 16 -130 19 -60 4 -155 10 -211 13 -55 4 -103 4 -106 1z"/>
<path d="M2038 483 c7 -3 16 -2 19 1 4 3 -2 6 -13 5 -11 0 -14 -3 -6 -6z"/>
<path d="M2575 480 c-27 -7 -25 -8 18 -9 26 0 47 4 47 9 0 11 -21 11 -65 0z"/>
<path d="M5418 483 c6 -2 18 -2 25 0 6 3 1 5 -13 5 -14 0 -19 -2 -12 -5z"/>
<path d="M5558 483 c7 -3 16 -2 19 1 4 3 -2 6 -13 5 -11 0 -14 -3 -6 -6z"/>
<path d="M6400 480 c0 -5 19 -10 43 -9 32 0 37 2 22 9 -28 12 -65 12 -65 0z"/>
<path d="M2765 470 c14 -6 1 -9 -44 -9 -35 -1 -62 -3 -59 -6 11 -11 112 -14
124 -4 22 18 16 29 -13 28 -25 0 -26 -1 -8 -9z"/>
<path d="M2844 471 c5 -8 56 -3 56 5 0 2 -14 4 -31 4 -16 0 -28 -4 -25 -9z"/>
<path d="M3132 466 c191 -10 221 -14 245 -32 16 -11 37 -23 48 -27 17 -6 16
-4 -4 12 l-24 18 54 7 c56 6 213 0 233 -10 6 -3 4 1 -5 8 -14 11 -4 14 70 16
47 2 88 6 91 9 6 7 -395 -4 -435 -12 -23 -5 -27 -4 -15 4 12 9 9 11 -15 10
-16 -1 -127 1 -245 4 l-215 6 217 -13z"/>
<path d="M4417 473 c-3 -5 43 -9 101 -10 82 -1 98 0 67 7 -50 11 -162 13 -168
3z"/>
<path d="M4663 473 c9 -2 23 -2 30 0 6 3 -1 5 -18 5 -16 0 -22 -2 -12 -5z"/>
<path d="M5480 470 c14 -4 32 -8 40 -9 13 -1 13 0 0 9 -8 5 -26 9 -40 9 l-25
-1 25 -8z"/>
<path d="M5603 473 c9 -2 25 -2 35 0 9 3 1 5 -18 5 -19 0 -27 -2 -17 -5z"/>
<path d="M2220 460 c-43 -7 -44 -7 -10 -9 68 -5 131 -3 137 3 4 3 -8 6 -25 6
-16 0 -36 2 -44 3 -7 2 -33 1 -58 -3z"/>
<path d="M3985 459 c44 -4 87 -8 95 -10 8 -1 24 -1 35 1 34 5 -76 18 -145 18
l-65 -1 80 -8z"/>
<path d="M5060 460 c-12 -8 -9 -10 13 -10 15 0 27 5 27 10 0 13 -20 13 -40 0z"/>
<path d="M1606 453 c-11 -3 -26 -11 -34 -19 -11 -12 2 -14 96 -14 60 0 138 -2
173 -5 l64 -5 -60 14 -60 13 85 4 c80 5 77 5 -36 7 -67 1 -141 4 -165 6 -24 3
-53 2 -63 -1z m67 -10 c-7 -2 -19 -2 -25 0 -7 3 -2 5 12 5 14 0 19 -2 13 -5z"/>
<path d="M4930 450 l-35 -7 37 -2 c20 0 40 4 43 9 7 11 7 11 -45 0z"/>
<path d="M5563 453 c9 -2 23 -2 30 0 6 3 -1 5 -18 5 -16 0 -22 -2 -12 -5z"/>
<path d="M6479 455 c-3 -2 -41 -5 -84 -6 -102 -2 -146 -17 -54 -18 82 -1 159
9 159 20 0 10 -14 12 -21 4z"/>
<path d="M4148 443 c6 -2 18 -2 25 0 6 3 1 5 -13 5 -14 0 -19 -2 -12 -5z"/>
<path d="M4428 443 c6 -2 18 -2 25 0 6 3 1 5 -13 5 -14 0 -19 -2 -12 -5z"/>
<path d="M5745 435 l30 -13 -30 -5 c-27 -4 -27 -4 8 -6 20 0 37 4 37 9 0 6 17
8 43 5 29 -4 36 -3 22 3 -11 5 -47 12 -80 15 -56 5 -58 5 -30 -8z"/>
<path d="M175 429 c-33 -5 -85 -7 -117 -6 -77 4 -75 -9 3 -15 38 -3 64 -10 69
-19 7 -10 33 -14 92 -16 l83 -2 -52 12 c-28 7 -54 15 -58 18 -11 12 93 21 168
15 43 -3 62 -2 47 3 -42 14 -172 19 -235 10z"/>
<path d="M850 430 c10 -7 -8 -10 -59 -10 -41 0 -71 -3 -68 -6 11 -11 368 -14
362 -3 -4 5 -19 9 -35 9 -16 0 -32 5 -35 10 -3 6 -45 10 -93 10 -60 0 -82 -3
-72 -10z"/>
<path d="M2295 430 c-33 -4 -50 -7 -38 -8 12 -1 25 -6 28 -12 10 -16 66 -10
110 10 l40 19 -40 -1 c-22 -1 -67 -4 -100 -8z"/>
<path d="M4165 409 l60 -19 -57 6 c-42 4 -58 2 -58 -7 0 -9 42 -10 183 -6 258
9 249 9 192 17 -27 4 -84 6 -125 3 -48 -3 -102 1 -150 11 -99 21 -119 19 -45
-5z"/>
<path d="M4618 423 c6 -2 18 -2 25 0 6 3 1 5 -13 5 -14 0 -19 -2 -12 -5z"/>
<path d="M4688 423 c6 -2 18 -2 25 0 6 3 1 5 -13 5 -14 0 -19 -2 -12 -5z"/>
<path d="M473 413 c9 -2 25 -2 35 0 9 3 1 5 -18 5 -19 0 -27 -2 -17 -5z"/>
<path d="M547 408 c-17 -11 124 -8 148 2 14 7 -5 9 -58 7 -43 -1 -84 -5 -90
-9z"/>
<path d="M1105 409 c-10 -15 -7 -15 63 -22 38 -4 62 -3 62 3 0 6 -21 10 -46
10 -27 0 -43 4 -39 10 3 6 -3 10 -14 10 -11 0 -23 -5 -26 -11z"/>
<path d="M1303 409 c-34 -12 -28 -21 10 -14 17 3 55 1 82 -4 36 -6 42 -9 20
-10 -17 0 -44 -5 -61 -10 -19 -5 -86 -3 -179 6 -106 10 -177 11 -245 5 l-95
-9 127 -2 c70 0 129 -5 132 -9 3 -5 30 -14 61 -21 59 -13 285 -8 294 8 4 4 67
13 141 20 147 12 195 13 140 1 -28 -6 -20 -8 39 -9 72 -1 146 -16 165 -33 13
-11 58 -10 76 2 12 8 9 10 -11 10 -15 0 -42 6 -60 14 -51 22 -22 27 126 22 72
-2 164 -5 205 -6 l75 -2 -52 -12 c-63 -13 -85 -31 -28 -23 22 4 67 7 100 8 49
1 54 3 30 9 l-30 8 30 1 c17 1 37 6 45 11 10 7 -9 10 -62 10 -42 0 -79 4 -82
9 -3 5 -187 7 -423 5 -230 -1 -434 1 -453 6 -67 16 -95 18 -117 9z"/>
<path d="M3500 410 c20 -13 40 -13 40 0 0 6 -12 10 -27 10 -22 0 -25 -2 -13
-10z"/>
<path d="M4958 413 c7 -3 16 -2 19 1 4 3 -2 6 -13 5 -11 0 -14 -3 -6 -6z"/>
<path d="M5450 410 c8 -5 26 -10 39 -10 32 0 24 6 -19 14 -25 4 -31 3 -20 -4z"/>
<path d="M5950 410 c0 -12 77 -12 105 0 14 6 2 9 -42 9 -36 1 -63 -3 -63 -9z"/>
<path d="M6090 414 c36 -7 190 -10 190 -2 0 4 -46 7 -102 7 -57 -1 -96 -3 -88
-5z"/>
<path d="M6363 413 c-40 -2 -73 -8 -73 -13 0 -12 29 -12 133 -4 43 4 77 11 77
15 0 5 -15 8 -32 7 -18 -1 -66 -4 -105 -5z"/>
<path d="M3840 400 c0 -5 10 -10 23 -10 18 0 19 2 7 10 -19 13 -30 13 -30 0z"/>
<path d="M5072 400 c-73 -11 -73 -16 1 -17 35 0 92 -5 127 -11 83 -14 214 -23
180 -12 -14 4 -42 8 -63 9 -21 1 -36 5 -33 10 4 5 -3 7 -14 4 -11 -3 -28 1
-37 8 -14 12 -16 12 -8 0 6 -11 2 -12 -21 -6 -16 5 -42 8 -59 7 -23 -1 -26 1
-15 8 17 11 17 11 -58 0z"/>
<path d="M5898 403 c6 -2 18 -2 25 0 6 3 1 5 -13 5 -14 0 -19 -2 -12 -5z"/>
<path d="M2990 390 c8 -5 24 -10 35 -10 17 0 17 2 5 10 -8 5 -24 10 -35 10
-17 0 -17 -2 -5 -10z"/>
<path d="M3480 389 c0 -5 12 -9 28 -10 15 -1 54 -2 86 -4 39 -2 54 0 44 6 -23
13 -158 20 -158 8z"/>
<path d="M4743 388 c-2 -5 10 -8 26 -8 17 0 31 4 31 9 0 11 -50 9 -57 -1z"/>
<path d="M5763 393 c20 -2 54 -2 75 0 20 2 3 4 -38 4 -41 0 -58 -2 -37 -4z"/>
<path d="M18 383 c12 -2 30 -2 40 0 9 3 -1 5 -23 4 -22 0 -30 -2 -17 -4z"/>
<path d="M4066 379 c-10 -6 -35 -9 -55 -5 -42 7 -141 -3 -141 -14 0 -18 224
-55 276 -46 21 4 57 7 79 7 33 0 37 1 21 10 -10 6 -39 12 -65 13 -100 5 -116
7 -106 14 9 6 19 32 13 32 -2 0 -11 -5 -22 -11z"/>
<path d="M5884 378 c-5 -8 16 -20 32 -17 5 1 20 1 34 0 17 -1 21 -4 13 -12
-11 -11 -300 -7 -373 5 -19 3 -29 3 -22 0 6 -3 10 -10 6 -15 -5 -8 62 -15 109
-11 9 1 17 -2 17 -7 0 -12 -51 -21 -139 -23 -42 -1 -58 -3 -36 -5 22 -2 50 -9
62 -15 14 -7 47 -9 90 -5 37 4 129 12 203 19 158 14 227 16 255 4 14 -6 16 -5
6 2 -11 8 -10 11 5 15 13 3 10 5 -11 7 l-30 2 30 8 c23 6 13 8 -45 10 -41 2
-60 5 -42 7 45 6 30 23 -21 25 l-42 1 50 7 c40 6 30 7 -48 7 -54 0 -100 -4
-103 -9z m61 -58 c-11 -5 -63 -8 -115 -8 -79 1 -86 2 -45 8 76 10 184 10 160
0z"/>
<path d="M425 364 c-33 -7 -71 -13 -85 -12 -23 0 -23 1 5 9 28 8 28 8 -5 3
-19 -3 -54 -8 -77 -11 -27 -3 -40 -9 -36 -16 4 -7 0 -8 -12 -3 -10 4 -21 2
-24 -3 -4 -5 -48 -11 -99 -12 -72 -1 -92 -5 -92 -16 0 -8 5 -11 11 -8 6 4 110
9 232 11 239 4 379 21 188 23 -57 1 -102 3 -100 5 2 2 40 9 84 15 77 11 256 5
225 -8 -29 -12 -21 -31 13 -31 21 0 41 -8 51 -19 10 -10 37 -24 61 -30 52 -13
295 -15 295 -2 0 11 -73 41 -100 41 -11 0 -20 3 -20 8 0 4 -43 9 -96 10 -53 2
-112 9 -132 16 l-37 13 65 8 c125 14 93 24 -80 23 -111 0 -197 -5 -235 -14z"/>
<path d="M3700 360 c24 -18 24 -18 -35 -6 -33 6 -76 9 -95 6 -35 -6 -35 -6 15
-14 28 -4 73 -12 100 -17 28 -5 79 -5 115 -1 l65 8 -55 16 c-30 9 -73 19 -95
22 l-40 5 25 -19z"/>
<path d="M4558 373 c-16 -2 -28 -8 -28 -14 0 -5 32 -6 78 -2 86 6 107 13 44
13 -22 0 -46 2 -54 3 -7 2 -25 2 -40 0z"/>
<path d="M5715 370 l-40 -7 43 -2 c23 0 42 4 42 9 0 6 -1 9 -2 9 -2 -1 -21 -5
-43 -9z"/>
<path d="M2436 352 c-5 -8 84 -5 93 3 2 3 -16 5 -42 5 -25 0 -48 -4 -51 -8z"/>
<path d="M2593 353 c9 -2 25 -2 35 0 9 3 1 5 -18 5 -19 0 -27 -2 -17 -5z"/>
<path d="M2658 353 c7 -3 16 -2 19 1 4 3 -2 6 -13 5 -11 0 -14 -3 -6 -6z"/>
<path d="M4228 353 c7 -3 16 -2 19 1 4 3 -2 6 -13 5 -11 0 -14 -3 -6 -6z"/>
<path d="M5515 352 c5 -9 -4 -11 -37 -7 -30 4 -37 3 -23 -3 11 -5 40 -12 65
-16 25 -3 38 -3 30 1 -8 3 -21 13 -28 22 -8 9 -11 10 -7 3z"/>
<path d="M6328 353 c7 -3 16 -2 19 1 4 3 -2 6 -13 5 -11 0 -14 -3 -6 -6z"/>
<path d="M6420 356 c0 -2 7 -7 16 -10 8 -3 12 -2 9 4 -6 10 -25 14 -25 6z"/>
<path d="M758 343 c6 -2 18 -2 25 0 6 3 1 5 -13 5 -14 0 -19 -2 -12 -5z"/>
<path d="M1660 340 c-14 -4 -54 -9 -90 -10 -36 -1 -74 -5 -85 -10 -22 -10 226
-3 285 7 l35 6 -30 7 c-40 10 -84 10 -115 0z"/>
<path d="M3365 340 c-55 -4 -138 -11 -185 -15 -47 -4 -134 -8 -194 -9 -77 -1
-111 -5 -114 -14 -2 -6 -8 -12 -13 -12 -6 0 -7 4 -4 10 3 6 -1 10 -9 10 -8 0
-17 -4 -20 -8 -8 -13 -87 -14 -102 -1 -7 6 -22 8 -34 4 -11 -4 -20 -2 -20 4 0
7 -24 10 -62 9 l-63 -1 55 -7 55 -7 -70 -2 c-56 -1 -66 -4 -51 -12 11 -7 43
-9 80 -6 39 4 52 3 36 -3 -14 -4 -50 -9 -80 -10 -30 -1 -46 -5 -35 -7 11 -3
26 -10 33 -15 8 -7 16 -7 25 -1 6 6 35 11 62 11 46 1 48 0 24 -11 -14 -7 -32
-17 -40 -24 -8 -6 -27 -15 -43 -19 -27 -7 -28 -8 -11 -20 22 -16 19 -17 -62
-14 -35 1 -63 -2 -63 -8 0 -9 64 -24 108 -24 12 0 22 -4 22 -9 0 -5 -27 -9
-60 -9 -99 0 -68 -17 46 -25 58 -4 102 -11 97 -15 -4 -4 -33 -4 -63 0 -30 5
-84 9 -120 10 -46 1 -59 4 -45 10 17 7 14 9 -15 10 -54 3 -110 9 -165 19 l-50
9 48 1 c26 0 47 6 47 11 0 6 23 10 52 10 28 0 48 3 44 7 -8 8 -179 4 -261 -7
-53 -7 -56 -8 -20 -10 22 -1 51 -6 65 -10 21 -7 18 -8 -20 -10 -138 -8 -227
-18 -248 -30 -9 -5 -43 -12 -75 -15 -47 -5 -57 -10 -53 -22 5 -13 -3 -14 -56
-9 -121 12 -474 4 -487 -11 -3 -3 4 -3 16 0 13 3 23 1 23 -3 0 -5 10 -11 22
-13 13 -2 -5 -5 -40 -6 -39 0 -61 -5 -57 -11 9 -14 767 -14 782 1 8 8 13 8 17
0 9 -13 563 -16 568 -3 2 5 17 12 33 16 19 4 25 3 16 -2 -24 -17 52 -19 713
-21 582 -2 648 0 643 14 -5 12 2 15 36 15 67 0 227 32 197 40 -20 5 -13 8 29
13 29 3 58 10 65 16 6 5 30 11 54 13 42 4 42 3 20 -13 -12 -10 -47 -22 -78
-28 -30 -6 -75 -18 -100 -26 -44 -15 -43 -15 75 -12 80 3 132 9 156 19 50 22
73 6 25 -17 -20 -10 -39 -21 -42 -26 -3 -5 42 -9 100 -9 63 0 107 4 111 11 4
6 19 7 37 4 21 -5 28 -4 24 4 -8 12 4 14 30 4 16 -6 16 -7 -2 -14 -10 -4 73
-7 185 -8 112 0 201 2 198 5 -3 3 -38 6 -78 6 -50 0 -94 7 -143 24 -85 29
-103 30 -56 4 66 -36 21 -20 -57 21 -57 29 -69 39 -45 35 19 -3 32 -1 32 5 0
6 18 9 43 8 36 -3 42 -1 39 15 -2 10 1 16 5 13 5 -3 15 -2 23 4 10 6 -9 9 -57
9 -65 0 -102 -12 -71 -23 28 -10 -3 -14 -132 -19 -97 -4 -118 -3 -75 3 101 15
86 17 -102 18 -115 1 -183 5 -183 11 0 6 -19 10 -42 10 -45 0 -193 31 -242 49
-16 6 -63 14 -105 18 -52 4 -80 11 -88 22 -8 10 -12 11 -13 4 0 -7 -7 -10 -15
-7 -28 11 -15 23 28 26 44 3 52 19 15 29 -121 33 -111 31 -298 53 -14 2 -70 0
-125 -4z m-65 -40 l-25 -8 25 -2 c17 -2 20 -4 8 -7 -10 -2 -28 3 -40 11 -22
16 -22 16 17 15 35 -1 37 -2 15 -9z m88 -27 c-10 -2 -28 -2 -40 0 -13 2 -5 4
17 4 22 1 32 -1 23 -4z m-641 -9 c-3 -3 -12 -4 -19 -1 -8 3 -5 6 6 6 11 1 17
-2 13 -5z m960 0 c-3 -3 -12 -4 -19 -1 -8 3 -5 6 6 6 11 1 17 -2 13 -5z m-492
-14 c20 -5 1 -8 -60 -8 -64 1 -80 3 -55 8 45 9 78 9 115 0z m-488 -30 c-1 -13
-6 -19 -15 -15 -7 3 -28 5 -45 6 l-32 1 30 13 c44 20 64 19 62 -5z m1228 -36
c26 -8 79 -22 118 -30 161 -34 158 -33 82 -30 -38 1 -78 -2 -87 -8 -12 -7 -29
-7 -60 3 -24 7 -58 14 -76 14 -21 0 -28 3 -20 9 10 6 10 8 -2 9 -42 2 -71 9
-97 23 l-28 16 42 -2 c23 -1 45 1 49 5 11 11 29 9 79 -9z m-195 -4 c12 -8 11
-10 -7 -10 -12 0 -25 5 -28 10 -8 13 15 13 35 0z m-419 -27 c11 -13 11 -15 1
-9 -8 5 -26 12 -40 16 l-27 8 26 1 c15 1 33 -7 40 -16z m-188 -10 c-7 -2 -19
-2 -25 0 -7 3 -2 5 12 5 14 0 19 -2 13 -5z m-227 -13 c5 -5 27 -13 48 -17 22
-5 41 -14 44 -21 3 -9 -3 -10 -23 -2 -14 5 -47 10 -73 11 -39 1 -42 2 -22 9
14 4 19 8 13 9 -7 1 -13 6 -13 11 0 13 13 13 26 0z m360 -10 c13 0 26 -4 29
-10 8 -13 -1 -12 -48 1 -21 6 -35 15 -31 20 4 7 10 7 17 0 6 -6 21 -11 33 -11z
m469 10 c8 -13 -5 -13 -25 0 -13 8 -13 10 2 10 9 0 20 -4 23 -10z m81 1 c-5
-8 -56 -3 -56 5 0 2 14 4 31 4 16 0 28 -4 25 -9z m-1540 -32 c3 -5 -1 -9 -8
-10 -61 -3 -174 -12 -224 -18 -38 -4 -71 -3 -85 3 -20 9 -9 12 61 16 58 4 72
7 45 10 -23 2 3 6 60 9 107 6 142 4 151 -10z m1963 7 c-2 -2 -44 -6 -94 -9
-53 -3 -82 -2 -70 3 19 8 173 14 164 6z m-1894 -16 c-3 -5 -13 -10 -21 -10 -8
0 -12 5 -9 10 3 6 13 10 21 10 8 0 12 -4 9 -10z m1702 4 c-3 -3 -12 -4 -19 -1
-8 3 -5 6 6 6 11 1 17 -2 13 -5z m540 0 c-3 -3 -12 -4 -19 -1 -8 3 -5 6 6 6
11 1 17 -2 13 -5z m-1452 -35 c99 -2 109 -3 55 -8 -50 -5 -59 -8 -40 -13 14
-4 41 -8 60 -9 l35 -1 -30 -9 c-42 -12 -208 -5 -213 10 -2 6 -18 11 -35 12
-27 0 -29 2 -12 9 17 7 17 9 3 9 -10 1 -18 5 -18 10 0 5 16 5 38 0 20 -5 91
-9 157 -10z m-1231 -14 c-7 -16 -18 -17 -303 -16 -84 0 -156 3 -159 6 -3 3 92
5 211 5 133 0 218 4 222 10 10 16 35 12 29 -5z m1021 5 c8 -13 -25 -13 -45 0
-12 8 -9 10 12 10 15 0 30 -4 33 -10z m-922 -17 c-7 -2 -21 -2 -30 0 -10 3 -4
5 12 5 17 0 24 -2 18 -5z m60 -10 c-7 -2 -19 -2 -25 0 -7 3 -2 5 12 5 14 0 19
-2 13 -5z m1310 0 c-7 -2 -19 -2 -25 0 -7 3 -2 5 12 5 14 0 19 -2 13 -5z m570
0 c-7 -2 -19 -2 -25 0 -7 3 -2 5 12 5 14 0 19 -2 13 -5z m-1786 -9 c-3 -3 -12
-4 -19 -1 -8 3 -5 6 6 6 11 1 17 -2 13 -5z m2600 0 c-3 -3 -12 -4 -19 -1 -8 3
-5 6 6 6 11 1 17 -2 13 -5z"/>
<path d="M3915 166 c65 -21 101 -28 92 -20 -13 13 -81 34 -107 33 -20 -1 -16
-4 15 -13z"/>
<path d="M920 334 c36 -7 139 -10 128 -2 -7 4 -42 7 -78 7 -36 -1 -58 -3 -50
-5z"/>
<path d="M2068 333 c7 -3 16 -2 19 1 4 3 -2 6 -13 5 -11 0 -14 -3 -6 -6z"/>
<path d="M2518 333 c12 -2 32 -2 45 0 12 2 2 4 -23 4 -25 0 -35 -2 -22 -4z"/>
<path d="M2708 333 c12 -2 32 -2 45 0 12 2 2 4 -23 4 -25 0 -35 -2 -22 -4z"/>
<path d="M4668 333 c7 -3 16 -2 19 1 4 3 -2 6 -13 5 -11 0 -14 -3 -6 -6z"/>
<path d="M4400 320 c11 -7 5 -10 -25 -11 l-40 -1 32 -10 c27 -9 43 -7 85 10
l53 21 -60 0 c-42 1 -56 -2 -45 -9z"/>
<path d="M4520 320 c0 -5 10 -10 23 -10 18 0 19 2 7 10 -19 13 -30 13 -30 0z"/>
<path d="M6353 323 c15 -2 39 -2 55 0 15 2 2 4 -28 4 -30 0 -43 -2 -27 -4z"/>
<path d="M1100 301 c0 -5 7 -11 14 -14 10 -4 13 -1 9 9 -6 15 -23 19 -23 5z"/>
<path d="M1158 294 c13 -9 26 -13 30 -9 8 8 -17 25 -38 25 -9 0 -6 -6 8 -16z"/>
<path d="M3940 295 c25 -14 25 -15 -10 -10 -26 4 -30 3 -15 -4 11 -5 67 -14
124 -20 57 -6 115 -14 130 -17 14 -4 23 -4 20 0 -3 4 -46 13 -95 22 -49 8
-103 21 -121 29 -40 19 -66 19 -33 0z"/>
<path d="M4298 303 c7 -3 16 -2 19 1 4 3 -2 6 -13 5 -11 0 -14 -3 -6 -6z"/>
<path d="M5200 300 c0 -3 -36 -5 -80 -4 -45 0 -83 -3 -86 -8 -3 -4 30 -7 73
-7 103 2 236 15 198 19 -49 6 -105 6 -105 0z"/>
<path d="M5358 303 c12 -2 32 -2 45 0 12 2 2 4 -23 4 -25 0 -35 -2 -22 -4z"/>
<path d="M5448 303 c6 -2 18 -2 25 0 6 3 1 5 -13 5 -14 0 -19 -2 -12 -5z"/>
<path d="M6208 303 c6 -2 18 -2 25 0 6 3 1 5 -13 5 -14 0 -19 -2 -12 -5z"/>
<path d="M1612 291 c15 -5 80 -11 145 -15 76 -3 104 -2 78 3 -57 13 -257 23
-223 12z"/>
<path d="M2236 292 c-3 -5 8 -6 25 -4 16 2 29 6 29 8 0 8 -49 4 -54 -4z"/>
<path d="M2430 289 c-21 -6 -18 -7 17 -8 23 -1 44 3 47 8 7 10 -29 11 -64 0z"/>
<path d="M4233 293 c9 -2 23 -2 30 0 6 3 -1 5 -18 5 -16 0 -22 -2 -12 -5z"/>
<path d="M4658 293 c12 -2 32 -2 45 0 12 2 2 4 -23 4 -25 0 -35 -2 -22 -4z"/>
<path d="M4751 296 c7 -7 209 -9 216 -2 4 3 -45 6 -107 6 -62 0 -111 -2 -109
-4z"/>
<path d="M4990 290 c0 -5 5 -10 10 -10 6 0 10 5 10 10 0 6 -4 10 -10 10 -5 0
-10 -4 -10 -10z"/>
<path d="M558 283 c7 -3 16 -2 19 1 4 3 -2 6 -13 5 -11 0 -14 -3 -6 -6z"/>
<path d="M598 283 c7 -3 16 -2 19 1 4 3 -2 6 -13 5 -11 0 -14 -3 -6 -6z"/>
<path d="M6288 283 c12 -2 30 -2 40 0 9 3 -1 5 -23 4 -22 0 -30 -2 -17 -4z"/>
<path d="M2 255 c0 -16 2 -22 5 -12 2 9 2 23 0 30 -3 6 -5 -1 -5 -18z"/>
<path d="M48 273 c12 -2 30 -2 40 0 9 3 -1 5 -23 4 -22 0 -30 -2 -17 -4z"/>
<path d="M2153 273 c9 -2 25 -2 35 0 9 3 1 5 -18 5 -19 0 -27 -2 -17 -5z"/>
<path d="M4672 275 c8 -8 98 -9 105 -1 4 3 -20 6 -52 6 -32 0 -56 -2 -53 -5z"/>
<path d="M424 255 c11 -8 34 -15 50 -14 28 0 27 2 -14 15 -56 17 -60 17 -36
-1z"/>
<path d="M588 263 c7 -3 16 -2 19 1 4 3 -2 6 -13 5 -11 0 -14 -3 -6 -6z"/>
<path d="M1085 260 c3 -5 8 -10 11 -10 2 0 4 5 4 10 0 6 -5 10 -11 10 -5 0 -7
-4 -4 -10z"/>
<path d="M4885 260 c-67 -4 -49 -6 110 -14 263 -12 438 -14 520 -6 69 7 68 7
-45 11 -63 2 -159 2 -212 0 -53 -1 -102 1 -109 5 -14 9 -154 11 -264 4z"/>
<path d="M5508 263 c6 -2 18 -2 25 0 6 3 1 5 -13 5 -14 0 -19 -2 -12 -5z"/>
<path d="M35 249 c-16 -6 -14 -8 13 -8 33 -1 41 4 20 12 -7 2 -22 1 -33 -4z"/>
<path d="M128 253 c7 -3 16 -2 19 1 4 3 -2 6 -13 5 -11 0 -14 -3 -6 -6z"/>
<path d="M2338 253 c6 -2 18 -2 25 0 6 3 1 5 -13 5 -14 0 -19 -2 -12 -5z"/>
<path d="M5888 253 c7 -3 16 -2 19 1 4 3 -2 6 -13 5 -11 0 -14 -3 -6 -6z"/>
<path d="M680 240 c-55 -9 133 -18 210 -10 l65 7 -85 3 c-141 6 -154 6 -190 0z"/>
<path d="M1236 241 c-3 -4 -67 -7 -143 -6 -76 1 -120 -1 -98 -4 72 -12 -104
-23 -236 -15 -87 5 -119 4 -119 -5 0 -6 6 -11 13 -11 6 -1 1 -7 -13 -15 l-25
-14 28 -1 c15 0 71 5 125 11 101 11 212 3 162 -12 -14 -4 -53 -7 -87 -8 -89
-1 -86 -17 5 -25 142 -12 279 -16 247 -7 -16 5 -50 9 -75 11 -25 1 -54 5 -65
10 -27 12 190 12 280 0 39 -5 99 -6 135 -2 l65 7 -95 8 c-52 4 -106 9 -120 12
-14 2 -68 4 -120 4 -58 1 -90 5 -85 10 8 8 238 19 418 20 58 0 44 21 -15 22
-66 1 -149 8 -165 14 -7 2 -15 1 -17 -4z"/>
<path d="M2185 240 l-70 -6 65 -1 c36 -1 76 3 90 7 30 10 18 10 -85 0z"/>
<path d="M3800 240 c0 -6 7 -10 15 -10 8 0 15 2 15 4 0 2 -7 6 -15 10 -8 3
-15 1 -15 -4z"/>
<path d="M3888 243 c6 -2 18 -2 25 0 6 3 1 5 -13 5 -14 0 -19 -2 -12 -5z"/>
<path d="M3933 244 c11 -11 77 -22 99 -16 21 5 21 6 2 13 -23 9 -110 12 -101
3z"/>
<path d="M4522 242 c-39 -2 -60 -7 -56 -13 4 -7 44 -8 112 -3 194 13 149 26
-56 16z"/>
<path d="M5615 230 c44 -11 65 -11 65 0 0 6 -21 9 -47 9 -43 -1 -45 -2 -18 -9z"/>
<path d="M180 220 c-21 -7 -19 -8 17 -9 23 -1 45 4 48 9 7 12 -29 12 -65 0z"/>
<path d="M2048 223 c7 -3 16 -2 19 1 4 3 -2 6 -13 5 -11 0 -14 -3 -6 -6z"/>
<path d="M5098 223 c7 -3 16 -2 19 1 4 3 -2 6 -13 5 -11 0 -14 -3 -6 -6z"/>
<path d="M5148 223 c6 -2 18 -2 25 0 6 3 1 5 -13 5 -14 0 -19 -2 -12 -5z"/>
<path d="M5777 223 c-24 -24 -181 -36 -238 -18 -11 4 -19 2 -19 -4 0 -15 77
-23 161 -17 136 10 214 21 202 29 -18 12 -97 20 -106 10z"/>
<path d="M6117 219 c19 -6 40 -5 55 0 18 8 12 10 -32 9 -50 0 -52 -1 -23 -9z"/>
<path d="M0 108 c0 -61 2 -109 5 -106 3 3 6 45 6 93 l1 88 101 -7 c56 -3 116
-8 132 -11 23 -4 21 -1 -10 9 -22 8 -57 15 -77 15 -39 1 -60 17 -31 23 10 2
-15 5 -54 5 l-73 2 0 -111z"/>
<path d="M578 213 c12 -2 30 -2 40 0 9 3 -1 5 -23 4 -22 0 -30 -2 -17 -4z"/>
<path d="M1983 213 c9 -2 25 -2 35 0 9 3 1 5 -18 5 -19 0 -27 -2 -17 -5z"/>
<path d="M4070 209 c0 -10 118 -29 166 -28 48 2 33 6 -78 22 -49 7 -88 10 -88
6z"/>
<path d="M1893 203 c9 -2 25 -2 35 0 9 3 1 5 -18 5 -19 0 -27 -2 -17 -5z"/>
<path d="M2303 202 c-13 -2 -23 -8 -23 -13 0 -8 47 -3 58 6 8 6 -15 11 -35 7z"/>
<path d="M5428 203 c12 -2 30 -2 40 0 9 3 -1 5 -23 4 -22 0 -30 -2 -17 -4z"/>
<path d="M6283 203 c9 -2 23 -2 30 0 6 3 -1 5 -18 5 -16 0 -22 -2 -12 -5z"/>
<path d="M268 193 c17 -2 47 -2 65 0 17 2 3 4 -33 4 -36 0 -50 -2 -32 -4z"/>
<path d="M1625 190 c20 -8 176 -28 265 -35 42 -4 43 -3 10 4 -27 6 -12 9 65
10 55 1 118 5 140 10 23 4 -35 6 -135 6 -96 -1 -165 1 -152 4 13 3 -30 6 -95
7 -65 1 -109 -2 -98 -6z"/>
<path d="M5338 189 c-19 -12 6 -17 52 -10 l45 7 -43 5 c-24 2 -48 2 -54 -2z"/>
<path d="M4340 180 c0 -13 50 -13 70 0 11 7 4 10 -27 10 -24 0 -43 -4 -43 -10z"/>
<path d="M6486 181 c-4 -7 -5 -15 -2 -18 9 -9 19 4 14 18 -4 11 -6 11 -12 0z"/>
<path d="M1580 170 c0 -5 15 -10 33 -10 24 0 28 3 17 10 -20 13 -50 13 -50 0z"/>
<path d="M5920 165 l45 -15 -55 4 c-54 3 -54 3 -32 -15 l23 -18 -38 6 c-21 3
-44 10 -51 16 -12 10 -163 11 -267 2 -22 -2 -62 -4 -90 -5 -44 0 -48 -2 -30
-13 14 -8 86 -13 229 -14 115 -1 211 -5 214 -8 11 -11 53 -5 46 7 -5 8 -3 8 7
2 8 -5 51 -9 96 -9 44 0 76 3 70 8 -7 4 -32 6 -57 6 -25 -1 -61 2 -80 6 l-35
8 30 8 c17 5 45 6 63 3 18 -4 32 -2 32 4 0 5 -23 12 -51 16 -29 4 -66 9 -83
11 -22 4 -18 1 14 -10z"/>
<path d="M6243 173 c26 -2 67 -2 90 0 23 2 2 3 -48 3 -49 0 -68 -1 -42 -3z"/>
<path d="M4438 163 c7 -3 16 -2 19 1 4 3 -2 6 -13 5 -11 0 -14 -3 -6 -6z"/>
<path d="M283 144 c0 -19 114 -25 232 -13 60 7 116 15 124 19 7 4 -70 7 -171
6 -130 -1 -185 -4 -185 -12z"/>
<path d="M4285 150 c-16 -7 -13 -9 15 -9 19 0 55 4 80 8 l45 8 -60 1 c-33 0
-69 -3 -80 -8z"/>
<path d="M4993 148 c7 -4 22 -8 34 -8 12 0 25 -5 29 -11 8 -14 144 -5 244 16
62 12 57 13 -127 12 -105 -1 -186 -5 -180 -9z"/>
<path d="M6288 143 c12 -2 30 -2 40 0 9 3 -1 5 -23 4 -22 0 -30 -2 -17 -4z"/>
<path d="M6103 125 c15 -9 50 -19 78 -22 27 -3 52 -10 55 -14 3 -5 26 -8 52
-8 l47 2 -40 7 c-22 5 -58 13 -80 19 -66 19 -69 19 -105 26 l-35 6 28 -16z"/>
<path d="M6368 133 c6 -2 18 -2 25 0 6 3 1 5 -13 5 -14 0 -19 -2 -12 -5z"/>
<path d="M1683 122 c-36 -5 -27 -19 16 -26 42 -6 101 2 101 14 0 9 -82 17
-117 12z"/>
<path d="M4875 121 c-6 -11 67 -34 90 -30 11 3 -2 11 -33 21 -29 9 -54 13 -57
9z"/>
<path d="M1145 110 c3 -5 16 -10 28 -10 18 0 19 2 7 10 -20 13 -43 13 -35 0z"/>
<path d="M1398 113 c7 -3 16 -2 19 1 4 3 -2 6 -13 5 -11 0 -14 -3 -6 -6z"/>
<path d="M1495 110 c3 -5 23 -10 43 -10 28 0 33 3 22 10 -20 13 -73 13 -65 0z"/>
<path d="M580 106 c0 -2 16 -6 35 -8 19 -2 35 0 35 4 0 4 -16 8 -35 8 -19 0
-35 -2 -35 -4z"/>
<path d="M670 103 c0 -5 9 -18 20 -28 17 -16 51 -20 218 -30 108 -6 226 -8
262 -5 l65 5 -55 8 c-30 4 -131 7 -225 8 -93 0 -179 4 -190 9 -18 8 -17 9 7 9
34 1 48 21 15 21 -13 0 -45 3 -71 6 -28 4 -46 3 -46 -3z"/>
<path d="M876 101 c-4 -5 3 -7 14 -4 23 6 26 13 6 13 -8 0 -17 -4 -20 -9z"/>
<path d="M5338 103 c7 -3 16 -2 19 1 4 3 -2 6 -13 5 -11 0 -14 -3 -6 -6z"/>
<path d="M243 93 c9 -2 23 -2 30 0 6 3 -1 5 -18 5 -16 0 -22 -2 -12 -5z"/>
<path d="M958 93 c12 -2 30 -2 40 0 9 3 -1 5 -23 4 -22 0 -30 -2 -17 -4z"/>
<path d="M1470 90 c0 -5 14 -10 32 -10 36 0 35 4 -4 14 -17 4 -28 2 -28 -4z"/>
<path d="M30 79 c0 -5 23 -9 52 -9 28 0 49 3 45 6 -10 10 -97 12 -97 3z"/>
<path d="M517 84 c-3 -4 -32 -10 -64 -14 l-58 -7 75 -1 c41 0 95 3 120 7 l45
8 -42 2 c-23 0 -48 3 -55 6 -8 3 -17 3 -21 -1z"/>
<path d="M1130 80 l-25 -8 25 0 c14 0 34 3 45 8 l20 9 -20 -1 c-11 0 -31 -4
-45 -8z"/>
<path d="M4760 80 c0 -5 11 -10 24 -10 13 0 39 -3 57 -6 32 -5 33 -5 15 10
-22 18 -96 22 -96 6z"/>
<path d="M200 70 c77 -11 164 -11 130 0 -14 4 -61 8 -105 8 -79 -1 -79 -1 -25
-8z"/>
<path d="M5570 70 c-12 -8 -11 -10 7 -10 12 0 25 5 28 10 8 13 -15 13 -35 0z"/>
<path d="M6435 69 c29 -5 12 -7 -58 -6 -105 2 -129 -7 -44 -17 28 -3 78 -8
110 -12 37 -4 57 -3 57 4 0 6 -6 13 -12 15 -10 4 -10 6 0 6 6 1 12 6 12 11 0
6 -23 9 -52 9 l-53 -2 40 -8z"/>
<path d="M4952 53 c32 -8 66 -12 75 -8 15 7 13 9 -12 15 -16 4 -50 8 -75 8
l-45 0 57 -15z"/>
<path d="M75 52 c13 -14 235 -33 271 -23 28 7 27 8 -16 14 -99 14 -265 19
-255 9z"/>
<path d="M815 20 l-80 -6 105 -1 c58 -1 128 2 155 7 47 7 46 7 -25 7 -41 0
-111 -4 -155 -7z"/>
<path d="M5793 23 c9 -2 25 -2 35 0 9 3 1 5 -18 5 -19 0 -27 -2 -17 -5z"/>
<path d="M5290 10 c14 -9 99 -15 89 -6 -2 2 -26 6 -54 10 -34 4 -45 3 -35 -4z"/>
<path d="M5615 10 c-16 -7 -11 -9 22 -9 23 -1 45 3 48 9 8 12 -42 12 -70 0z"/>
<path d="M1013 3 c26 -2 67 -2 90 0 23 2 2 3 -48 3 -49 0 -68 -1 -42 -3z"/>
<path d="M4348 3 c12 -2 32 -2 45 0 12 2 2 4 -23 4 -25 0 -35 -2 -22 -4z"/>
<path d="M6318 3 c12 -2 30 -2 40 0 9 3 -1 5 -23 4 -22 0 -30 -2 -17 -4z"/>
</g>
</svg>
